<svg width="38" height="38" viewBox="0 0 38 38" fill="none" xmlns="http://www.w3.org/2000/svg">
<circle cx="19" cy="19" r="19" fill="#FDD7D1"/>
<path d="M18.9755 21.1312C20.4287 21.1312 21.6067 19.9532 21.6067 18.5C21.6067 17.0468 20.4287 15.8688 18.9755 15.8688C17.5223 15.8688 16.3442 17.0468 16.3442 18.5C16.3442 19.9532 17.5223 21.1312 18.9755 21.1312Z" stroke="#C51F1E" stroke-width="1.31562"/>
<path d="M10.2908 10.4485L10.6197 9.87748C10.4906 9.80282 10.3399 9.77426 10.1924 9.79649C10.0449 9.81872 9.90936 9.89042 9.80797 9.99983L10.2908 10.4485ZM7.66089 15.0057L7.03202 14.811C6.98825 14.9534 6.99409 15.1064 7.04858 15.245C7.10307 15.3836 7.20299 15.4996 7.33198 15.5741L7.66089 15.0057ZM7.65826 21.993L7.32935 21.4233C7.20008 21.4978 7.09997 21.6141 7.04546 21.753C6.99096 21.8918 6.98529 22.0451 7.02939 22.1877L7.65826 21.993ZM10.2895 26.5503L9.80666 26.9976C9.90804 27.107 10.0436 27.1787 10.1911 27.2009C10.3386 27.2231 10.4893 27.1946 10.6184 27.1199L10.2895 26.5503ZM16.3413 30.0432H15.6835C15.6834 30.1926 15.7342 30.3375 15.8274 30.4542C15.9207 30.5709 16.0509 30.6524 16.1966 30.6852L16.3413 30.0432ZM21.6051 30.0459L21.7511 30.6879C21.8966 30.6548 22.0265 30.5732 22.1195 30.4565C22.2125 30.3399 22.263 30.195 22.2629 30.0459H21.6051ZM27.6582 26.5516L27.3293 27.1212C27.4585 27.1959 27.6091 27.2245 27.7566 27.2022C27.9041 27.18 28.0397 27.1083 28.1411 26.9989L27.6582 26.5516ZM30.2868 21.9917L30.9157 22.1864C30.9595 22.044 30.9536 21.891 30.8991 21.7524C30.8447 21.6138 30.7447 21.4978 30.6157 21.4233L30.2868 21.9917ZM30.2895 15.0044L30.6184 15.5741C30.7476 15.4996 30.8478 15.3833 30.9023 15.2445C30.9568 15.1056 30.9624 14.9523 30.9183 14.8097L30.2895 15.0044ZM27.6582 10.4458L28.1411 9.99851C28.0397 9.88911 27.9041 9.81741 27.7566 9.79518C27.6091 9.77295 27.4585 9.8015 27.3293 9.87616L27.6582 10.4458ZM21.6064 6.95549H22.2642C22.2641 6.80653 22.2133 6.66203 22.1204 6.54564C22.0274 6.42925 21.8977 6.34786 21.7524 6.31479L21.6064 6.95549ZM16.3439 6.95286L16.1979 6.31084C16.0522 6.3437 15.922 6.42518 15.8288 6.54186C15.7355 6.65855 15.6847 6.80349 15.6848 6.95286H16.3439ZM8.28975 15.2005C8.78336 13.5969 9.63189 12.1251 10.7723 10.8944L9.80797 9.99983C8.53295 11.3752 7.58415 13.0187 7.03202 14.811L8.28975 15.2005ZM9.28962 24.0914C8.87151 23.3672 8.5357 22.5984 8.28844 21.7996L7.03071 22.189C7.30787 23.0815 7.68383 23.9402 8.15161 24.7492L9.28962 24.0914ZM10.7736 26.1043C10.206 25.4906 9.70734 24.8155 9.28962 24.0914L8.15161 24.7492C8.61818 25.5585 9.17375 26.313 9.80797 26.9989L10.7736 26.1043ZM21.4604 29.4065C19.8244 29.7789 18.1256 29.778 16.49 29.4038L16.1979 30.6852C18.0256 31.1036 19.9241 31.1049 21.7524 30.6892L21.4604 29.4065ZM29.6606 21.7996C29.167 23.4032 28.3185 24.8749 27.178 26.1056L28.1424 27.0002C29.4174 25.6249 30.3662 23.98 30.9183 22.1877L29.6606 21.7996ZM28.6607 12.9087C29.087 13.6493 29.4198 14.4177 29.6632 15.2005L30.9196 14.811C30.6426 13.9185 30.2666 13.0598 29.7987 12.2508L28.6607 12.9087ZM27.1767 10.8958C27.7448 11.5091 28.2435 12.1843 28.6607 12.9087L29.7987 12.2508C29.3322 11.4415 28.7766 10.687 28.1424 10.0011L27.1767 10.8958ZM16.49 7.59357C18.1259 7.22112 19.8248 7.22202 21.4604 7.5962L21.7524 6.31479C19.9247 5.89641 18.0262 5.89506 16.1979 6.31084L16.49 7.59357ZM17.0018 9.38544V6.95155H15.6861V9.38544H17.0018ZM12.726 11.0931L10.6197 9.87748L9.9619 11.0155L12.0669 12.2324L12.726 11.0931ZM9.43697 20.2077L7.32935 21.4233L7.98848 22.5626L10.0935 21.347L9.43697 20.2077ZM10.0948 15.6504L7.98979 14.4361L7.33198 15.5754L9.43697 16.7897L10.0948 15.6504ZM17.0018 30.0432V27.6133H15.6861V30.0432H17.0018ZM12.0682 24.765L9.9619 25.9806L10.6197 27.1199L12.7247 25.9043L12.0682 24.765ZM27.9885 25.9819L25.8822 24.765L25.2243 25.9056L27.3293 27.1212L27.9885 25.9819ZM22.2642 30.0472V27.6133H20.9486V30.0472H22.2642ZM29.9619 14.4348L27.8556 15.6504L28.5134 16.7897L30.6184 15.5741L29.9619 14.4348ZM30.6171 21.422L28.5134 20.2103L27.8556 21.3496L29.9606 22.564L30.6171 21.422ZM22.2642 9.38544V6.95549H20.9486V9.38544H22.2642ZM27.3307 9.87748L25.2243 11.0944L25.8822 12.2337L27.9885 11.0168L27.3307 9.87748ZM20.9486 9.38544C20.9486 11.9167 23.689 13.4994 25.8822 12.2337L25.2243 11.0944C24.9243 11.2677 24.5838 11.3589 24.2373 11.3588C23.8908 11.3588 23.5504 11.2675 23.2504 11.0941C22.9503 10.9207 22.7012 10.6714 22.5281 10.3713C22.355 10.0711 22.264 9.73195 22.2642 9.38544H20.9486ZM27.8556 15.6517C25.6625 16.9173 25.6625 20.0827 27.8556 21.3483L28.5134 20.209C28.2134 20.0358 27.9643 19.7867 27.7911 19.4867C27.6179 19.1867 27.5268 18.8464 27.5268 18.5C27.5268 18.1536 27.6179 17.8133 27.7911 17.5134C27.9643 17.2134 28.2134 16.9642 28.5134 16.791L27.8556 15.6517ZM25.8822 24.7663C23.689 23.5007 20.9486 25.0807 20.9486 27.6133H22.2642C22.2642 27.2669 22.3554 26.9279 22.5286 26.6279C22.7018 26.3279 22.951 26.0788 23.2509 25.9056C23.5509 25.7324 23.8912 25.6412 24.2377 25.6412C24.5841 25.6412 24.9244 25.7324 25.2243 25.9056L25.8822 24.7663ZM17.0018 27.6133C17.0018 25.082 14.2613 23.5007 12.0682 24.7663L12.726 25.9056C13.0261 25.7324 13.3665 25.6412 13.713 25.6412C14.0595 25.6413 14.3999 25.7326 14.7 25.9059C15 26.0793 15.2491 26.3286 15.4222 26.6288C15.5953 26.9289 15.6864 27.2694 15.6861 27.6159L17.0018 27.6133ZM10.0948 21.3483C12.2879 20.0827 12.2879 16.9173 10.0948 15.6517L9.43697 16.791C10.7526 17.5501 10.7526 19.4473 9.43697 20.2077L10.0948 21.3483ZM15.6861 9.38544C15.6859 9.73173 15.5945 10.0719 15.4212 10.3717C15.2479 10.6715 14.9988 10.9204 14.6988 11.0934C14.3989 11.2665 14.0587 11.3576 13.7124 11.3575C13.3661 11.3574 13.0259 11.2663 12.726 11.0931L12.0682 12.2337C14.2613 13.4994 17.0018 11.918 17.0018 9.38544H15.6861Z" fill="#C51F1E"/>
</svg>
