<svg width="38" height="38" viewBox="0 0 38 38" fill="none" xmlns="http://www.w3.org/2000/svg">
<circle cx="19" cy="19" r="19" fill="#FDD7D1"/>
<path d="M20.3586 8.39163V7.69592C20.356 7.51241 20.281 7.33737 20.1499 7.20892C20.0871 7.14291 20.0116 7.09035 19.9279 7.05444C19.8442 7.01852 19.754 7 19.6629 7C19.5718 7 19.4817 7.01852 19.398 7.05444C19.3142 7.09035 19.2387 7.14291 19.1759 7.20892C19.0448 7.33737 18.9698 7.51241 18.9672 7.69592V8.39163C16.1298 8.56414 13.4522 9.76357 11.4345 11.7659C9.41681 13.7683 8.19695 16.4366 8.00277 19.2726C7.99075 19.4609 8.01794 19.6496 8.0826 19.8268C8.14727 20.0041 8.24801 20.1659 8.37845 20.3022C8.51132 20.4419 8.67099 20.5533 8.84791 20.6298C9.02483 20.7063 9.21536 20.7463 9.40811 20.7475H18.9672V28.0107C19.0256 28.4123 18.9765 28.8221 18.825 29.1985C18.6734 29.5749 18.4248 29.9045 18.1045 30.1535C17.7951 30.3627 17.4361 30.4866 17.0635 30.5129C16.691 30.5392 16.3181 30.4669 15.9824 30.3033C15.6467 30.1396 15.36 29.8905 15.1512 29.5808C14.9424 29.2712 14.8188 28.912 14.7929 28.5395C14.7929 28.355 14.7196 28.178 14.5892 28.0475C14.4587 27.9171 14.2817 27.8438 14.0972 27.8438C13.9127 27.8438 13.7357 27.9171 13.6053 28.0475C13.4748 28.178 13.4015 28.355 13.4015 28.5395C13.4136 29.4286 13.775 30.2773 14.4076 30.9022C15.0403 31.527 15.8934 31.8779 16.7827 31.8789C17.6779 31.9246 18.5552 31.6159 19.2245 31.0195C19.8938 30.4232 20.3013 29.5871 20.3586 28.6925C20.4699 26.7585 20.3586 24.7826 20.3586 22.8485V20.7475H29.9177C30.1105 20.7463 30.301 20.7063 30.4779 20.6298C30.6548 20.5533 30.8145 20.4419 30.9474 20.3022C31.0778 20.1659 31.1786 20.0041 31.2432 19.8268C31.3079 19.6496 31.3351 19.4609 31.3231 19.2726C31.1289 16.4366 29.909 13.7683 27.8913 11.7659C25.8736 9.76357 23.196 8.56414 20.3586 8.39163ZM29.9177 19.3561L9.39419 19.37C9.58167 16.7769 10.7432 14.3507 12.6455 12.5785C14.5478 10.8063 17.0501 9.81943 19.65 9.81591C22.2499 9.81238 24.7548 10.7925 26.662 12.5595C28.5691 14.3265 29.7371 16.7496 29.9316 19.3422C29.9316 19.3561 29.9316 19.3561 29.9177 19.3561Z" fill="#C51F1E"/>
</svg>
