<svg width="38" height="38" viewBox="0 0 38 38" fill="none" xmlns="http://www.w3.org/2000/svg">
<circle cx="19" cy="19" r="19" fill="#FDD7D1"/>
<path d="M32.0875 11.094C31.2783 9.69906 29.0696 9.41738 25.6894 10.2568C24.1411 9.03507 22.28 8.27417 20.3192 8.06132C18.3584 7.84847 16.3774 8.19227 14.603 9.05334C12.8286 9.9144 11.3326 11.2579 10.2865 12.9299C9.24044 14.6019 8.6865 16.5348 8.68819 18.5071C8.68825 18.9932 8.72186 19.4787 8.78879 19.9602C6.34535 22.4617 5.48467 24.5184 6.29729 25.9201C6.80028 26.7875 7.86216 27.2268 9.41139 27.2268C10.3529 27.2105 11.2899 27.0921 12.2058 26.8736C12.3679 26.8378 12.5322 26.7975 12.6987 26.7618C14.3454 28.0597 16.343 28.835 18.4341 28.9879C20.5253 29.1407 22.6143 28.664 24.4322 27.6193C26.2501 26.5745 27.7136 25.0095 28.6343 23.1257C29.555 21.242 29.8907 19.1257 29.5983 17.0495C31.0122 15.5964 31.9579 14.2193 32.2653 13.0702C32.4642 12.3068 32.4061 11.6429 32.0875 11.094ZM19.1896 9.34137C21.2884 9.34426 23.3228 10.0663 24.9538 11.3871C26.5848 12.708 27.7139 14.5478 28.153 16.6002C26.3646 18.3103 23.8898 20.1401 21.0775 21.7553C18.0148 23.5169 15.254 24.6548 13.0251 25.2807C11.6594 24.0358 10.7019 22.407 10.2782 20.6082C9.8546 18.8094 9.98461 16.9245 10.6512 15.2009C11.3178 13.4773 12.4899 11.9954 14.0136 10.9498C15.5373 9.90409 17.3416 9.34344 19.1896 9.34137ZM7.45306 25.2472C7.0596 24.5687 7.71126 23.1726 9.12971 21.5586C9.59399 23.084 10.3994 24.4838 11.4848 25.6518C9.28843 26.0788 7.83198 25.8933 7.45306 25.2472ZM19.1896 27.6728C17.4756 27.6745 15.7959 27.1922 14.3441 26.2811C16.6556 25.5311 19.2131 24.3742 21.7459 22.9189C24.2978 21.4524 26.5669 19.826 28.3464 18.2343C28.3464 18.3249 28.3531 18.4154 28.3531 18.5071C28.3507 20.9368 27.3846 23.2665 25.6667 24.9848C23.9488 26.7031 21.6194 27.6698 19.1896 27.6728ZM30.9653 12.7181C30.7552 13.5006 30.1516 14.4496 29.2484 15.469C28.7847 13.9399 27.9781 12.5368 26.8899 11.3668C28.6582 11.0259 30.4668 10.9767 30.9273 11.7669C31.0603 11.9961 31.0726 12.3169 30.9653 12.7181Z" fill="#C51F1E"/>
</svg>
