<svg width="38" height="38" viewBox="0 0 38 38" fill="none" xmlns="http://www.w3.org/2000/svg">
<circle cx="19" cy="19" r="19" fill="#FDD7D1"/>
<path d="M18.7867 5.29873C19.0112 4.60775 19.9888 4.60774 20.2133 5.29873L22.4965 12.3257C22.7709 13.1703 23.558 13.7422 24.4462 13.7422L31.8347 13.7422C32.5613 13.7422 32.8634 14.6719 32.2756 15.099L26.2981 19.4419C25.5796 19.9639 25.2789 20.8892 25.5534 21.7338L27.8366 28.7608C28.0611 29.4518 27.2702 30.0264 26.6824 29.5993L20.705 25.2564C19.9865 24.7344 19.0135 24.7344 18.295 25.2564L12.3176 29.5993C11.7298 30.0264 10.9389 29.4518 11.1634 28.7608L13.4466 21.7338C13.7211 20.8892 13.4204 19.9639 12.7019 19.4419L6.72442 15.099C6.13664 14.6719 6.43872 13.7422 7.16527 13.7422L14.5538 13.7422C15.442 13.7422 16.2291 13.1703 16.5035 12.3257L18.7867 5.29873Z" stroke="#C51F1E" stroke-width="1.3"/>
</svg>
