<svg width="38" height="38" viewBox="0 0 38 38" fill="none" xmlns="http://www.w3.org/2000/svg">
<circle cx="19" cy="19" r="19" fill="#FDD7D1"/>
<path d="M34 18.635C33.9998 19.9474 33.6105 21.2302 32.8813 22.3213C32.1522 23.4124 31.1158 24.2628 29.9034 24.765C28.691 25.2671 27.3568 25.3986 26.0697 25.1426C24.7826 24.8866 23.6002 24.2547 22.6722 23.3269C22.6613 23.3169 22.6511 23.3062 22.6415 23.2949L15.2682 14.9705C14.5447 14.2529 13.625 13.7656 12.625 13.5698C11.6249 13.3741 10.5893 13.4788 9.64871 13.8707C8.70807 14.2626 7.90448 14.9241 7.33922 15.772C6.77396 16.6198 6.47233 17.616 6.47233 18.635C6.47233 19.654 6.77396 20.6502 7.33922 21.4981C7.90448 22.3459 8.70807 23.0075 9.64871 23.3994C10.5893 23.7913 11.6249 23.8959 12.625 23.7002C13.625 23.5045 14.5447 23.0171 15.2682 22.2995L16.3214 21.1112C16.3859 21.0386 16.4641 20.9794 16.5516 20.937C16.639 20.8946 16.7339 20.8699 16.8309 20.8642C16.9279 20.8584 17.0251 20.8719 17.1169 20.9038C17.2087 20.9356 17.2933 20.9852 17.3659 21.0498C17.4385 21.1143 17.4977 21.1925 17.5401 21.28C17.5825 21.3674 17.6073 21.4623 17.613 21.5593C17.6187 21.6563 17.6052 21.7535 17.5734 21.8453C17.5415 21.9371 17.4919 22.0217 17.4273 22.0943L16.3594 23.2998C16.3499 23.3111 16.3396 23.3218 16.3287 23.3318C15.4007 24.26 14.2183 24.8921 12.931 25.1483C11.6438 25.4044 10.3094 25.2731 9.09678 24.7709C7.88414 24.2687 6.84767 23.4181 6.11845 22.3268C5.38922 21.2355 5 19.9525 5 18.6399C5 17.3274 5.38922 16.0444 6.11845 14.9531C6.84767 13.8618 7.88414 13.0112 9.09678 12.509C10.3094 12.0068 11.6438 11.8754 12.931 12.1316C14.2183 12.3878 15.4007 13.0199 16.3287 13.9481C16.3396 13.9581 16.3499 13.9688 16.3594 13.98L23.7327 22.3045C24.4562 23.022 25.3759 23.5094 26.376 23.7051C27.376 23.9008 28.4116 23.7962 29.3522 23.4043C30.2929 23.0124 31.0964 22.3508 31.6617 21.503C32.227 20.6551 32.5286 19.6589 32.5286 18.6399C32.5286 17.6209 32.227 16.6247 31.6617 15.7769C31.0964 14.929 30.2929 14.2675 29.3522 13.8756C28.4116 13.4837 27.376 13.379 26.376 13.5747C25.3759 13.7705 24.4562 14.2578 23.7327 14.9754L22.6796 16.1637C22.615 16.2364 22.5368 16.2956 22.4494 16.338C22.3619 16.3803 22.267 16.4051 22.17 16.4108C22.073 16.4165 21.9759 16.4031 21.8841 16.3712C21.7923 16.3394 21.7076 16.2897 21.635 16.2252C21.5624 16.1606 21.5032 16.0824 21.4608 15.995C21.4184 15.9076 21.3937 15.8126 21.388 15.7156C21.3823 15.6186 21.3957 15.5215 21.4276 15.4297C21.4594 15.3379 21.509 15.2533 21.5736 15.1806L22.6415 13.9751C22.6511 13.9639 22.6613 13.9532 22.6722 13.9432C23.6002 13.0153 24.7826 12.3834 26.0697 12.1275C27.3568 11.8715 28.691 12.0029 29.9034 12.5051C31.1158 13.0073 32.1522 13.8577 32.8813 14.9488C33.6105 16.0399 33.9998 17.3227 34 18.635Z" fill="#C51F1E"/>
</svg>
