<svg width="38" height="38" viewBox="0 0 38 38" fill="none" xmlns="http://www.w3.org/2000/svg">
<circle cx="19" cy="19" r="19" fill="#FDD7D1"/>
<path d="M19 8L10 11V20C10 24.9711 14.0289 29 19 29C23.9711 29 28 24.9711 28 20V11L19 8ZM26.3125 20C26.3125 24.0383 23.0383 27.3125 19 27.3125C14.9617 27.3125 11.6875 24.0383 11.6875 20V12.2656L19 9.6875L26.3125 12.2656V20Z" fill="#C51F1E"/>
<path d="M15.8691 17.6352C15.7909 17.5566 15.6979 17.4943 15.5955 17.4517C15.4932 17.4092 15.3834 17.3873 15.2726 17.3873C15.1617 17.3873 15.052 17.4092 14.9496 17.4517C14.8472 17.4943 14.7543 17.5566 14.6761 17.6352C14.5975 17.7134 14.5352 17.8063 14.4927 17.9087C14.4501 18.011 14.4282 18.1208 14.4282 18.2316C14.4282 18.3425 14.4501 18.4522 14.4927 18.5546C14.5352 18.657 14.5975 18.7499 14.6761 18.8281L17.7089 21.8609L17.7581 21.9102C17.8321 21.9843 17.92 22.0431 18.0167 22.0832C18.1134 22.1233 18.2171 22.1439 18.3218 22.1439C18.4265 22.1439 18.5302 22.1233 18.6269 22.0832C18.7236 22.0431 18.8115 21.9843 18.8855 21.9102L24.1237 16.6719C24.1979 16.5979 24.2567 16.51 24.2968 16.4133C24.3369 16.3166 24.3575 16.2129 24.3575 16.1082C24.3575 16.0035 24.3369 15.8998 24.2968 15.8031C24.2567 15.7064 24.1979 15.6185 24.1237 15.5445L24.0581 15.4789C23.9841 15.4048 23.8963 15.346 23.7996 15.3059C23.7028 15.2658 23.5992 15.2451 23.4945 15.2451C23.3897 15.2451 23.2861 15.2658 23.1893 15.3059C23.0926 15.346 23.0048 15.4048 22.9308 15.4789L18.3206 20.0867L15.8691 17.6352Z" fill="#C51F1E"/>
</svg>
