<svg width="134" height="36" viewBox="0 0 134 36" fill="none" xmlns="http://www.w3.org/2000/svg">
<rect x="0.5" y="0.5" width="133" height="35" rx="9.5" stroke="#1F6786"/>
<path d="M10.093 15H8.975V8.812H9.976V13.661L13.083 8.812H14.227V15H13.226V10.125L10.093 15ZM16.1732 15V8.812H17.2132V11.347H20.5152V8.812H21.5552V15H20.5152V12.309H17.2132V15H16.1732ZM22.6011 14.038H23.2511C23.4678 13.8647 23.6498 13.6177 23.7971 13.297C23.9445 12.9677 24.0311 12.6167 24.0571 12.244C24.0658 12.1053 24.0745 11.945 24.0831 11.763C24.0918 11.581 24.0961 11.36 24.0961 11.1C24.1048 10.8313 24.1091 10.5107 24.1091 10.138C24.1178 9.76533 24.1221 9.32333 24.1221 8.812H28.5161V14.038H29.5171V16.742H28.5031V15H23.6151V16.742H22.6011V14.038ZM25.0321 12.387C24.9975 12.751 24.9238 13.0717 24.8111 13.349C24.6985 13.6177 24.5728 13.8473 24.4341 14.038H27.4761V9.774H25.0971C25.0971 10.372 25.0928 10.8963 25.0841 11.347C25.0755 11.789 25.0581 12.1357 25.0321 12.387ZM31.802 15H30.684V8.812H31.685V13.661L34.792 8.812H35.936V15H34.935V10.125L31.802 15ZM37.8822 15V8.812H40.5602C41.2362 8.812 41.7562 8.955 42.1202 9.241C42.4929 9.527 42.6792 9.943 42.6792 10.489C42.6792 10.723 42.6186 10.9657 42.4972 11.217C42.3846 11.4683 42.1549 11.6633 41.8082 11.802C42.1809 11.9147 42.4452 12.0967 42.6012 12.348C42.7659 12.5907 42.8482 12.894 42.8482 13.258C42.8482 13.7867 42.6792 14.2113 42.3412 14.532C42.0119 14.844 41.4789 15 40.7422 15H37.8822ZM40.5732 9.696H38.8962V11.438H40.6642C41.0109 11.438 41.2709 11.3687 41.4442 11.23C41.6176 11.0827 41.7042 10.8617 41.7042 10.567C41.7042 10.2723 41.6219 10.0557 41.4572 9.917C41.2926 9.76967 40.9979 9.696 40.5732 9.696ZM40.7552 12.283H38.8962V14.116H40.7552C41.1539 14.116 41.4356 14.038 41.6002 13.882C41.7736 13.726 41.8602 13.505 41.8602 13.219C41.8602 12.8983 41.7692 12.6643 41.5872 12.517C41.4139 12.361 41.1366 12.283 40.7552 12.283ZM45.5256 15H44.4076V8.812H45.4086V13.661L48.5156 8.812H49.6596V15H48.6586V10.125L45.5256 15ZM50.6959 14.038H51.3459C51.5625 13.8647 51.7445 13.6177 51.8919 13.297C52.0392 12.9677 52.1259 12.6167 52.1519 12.244C52.1605 12.1053 52.1692 11.945 52.1779 11.763C52.1865 11.581 52.1909 11.36 52.1909 11.1C52.1995 10.8313 52.2039 10.5107 52.2039 10.138C52.2125 9.76533 52.2169 9.32333 52.2169 8.812H56.6109V14.038H57.6119V16.742H56.5979V15H51.7099V16.742H50.6959V14.038ZM53.1269 12.387C53.0922 12.751 53.0185 13.0717 52.9059 13.349C52.7932 13.6177 52.6675 13.8473 52.5289 14.038H55.5709V9.774H53.1919C53.1919 10.372 53.1875 10.8963 53.1789 11.347C53.1702 11.789 53.1529 12.1357 53.1269 12.387ZM61.1601 15.949C60.9261 16.5383 60.6531 16.9457 60.3411 17.171C60.0291 17.405 59.6391 17.522 59.1711 17.522H58.5731V16.56H58.9631C59.2578 16.56 59.5135 16.495 59.7301 16.365C59.9468 16.235 60.1245 15.9967 60.2631 15.65L60.5361 14.974L57.9101 8.812H59.0541L61.0821 13.713L62.9021 8.812H63.9811L61.1601 15.949ZM68.8353 15V14.272C68.6447 14.5233 68.3803 14.7313 68.0423 14.896C67.713 15.052 67.3273 15.13 66.8853 15.13C66.2093 15.13 65.672 14.9653 65.2733 14.636C64.8833 14.3067 64.6883 13.856 64.6883 13.284C64.6883 12.6427 64.9007 12.179 65.3253 11.893C65.7587 11.607 66.3307 11.451 67.0413 11.425C67.362 11.4163 67.661 11.4163 67.9383 11.425C68.2157 11.425 68.493 11.4293 68.7703 11.438V10.905C68.7703 10.4543 68.6403 10.125 68.3803 9.917C68.1203 9.709 67.791 9.605 67.3923 9.605C66.9503 9.605 66.6123 9.71333 66.3783 9.93C66.153 10.1467 65.9883 10.411 65.8843 10.723L64.8963 10.515C65.0263 9.969 65.3037 9.527 65.7283 9.189C66.153 8.851 66.7077 8.682 67.3923 8.682C68.0943 8.682 68.6707 8.85967 69.1213 9.215C69.5807 9.56167 69.8103 10.112 69.8103 10.866V15H68.8353ZM68.7703 12.257C68.5103 12.2483 68.233 12.244 67.9383 12.244C67.6523 12.244 67.362 12.2483 67.0673 12.257C66.6253 12.2743 66.2917 12.3697 66.0663 12.543C65.841 12.7163 65.7283 12.959 65.7283 13.271C65.7283 13.5657 65.8323 13.804 66.0403 13.986C66.257 14.1593 66.5473 14.246 66.9113 14.246C67.4313 14.246 67.869 14.1203 68.2243 13.869C68.5883 13.609 68.7703 13.271 68.7703 12.855V12.257ZM72.1968 12.764C72.2055 12.5213 72.2142 12.2267 72.2228 11.88C72.2315 11.5247 72.2358 11.165 72.2358 10.801C72.2445 10.4283 72.2532 10.0687 72.2618 9.722C72.2705 9.36667 72.2748 9.06333 72.2748 8.812H76.6558V15H75.6158V9.774H73.2368C73.2368 10.0253 73.2325 10.294 73.2238 10.58C73.2238 10.866 73.2195 11.1477 73.2108 11.425C73.2022 11.6937 73.1935 11.9537 73.1848 12.205C73.1848 12.4563 73.1805 12.673 73.1718 12.855C73.1372 13.6783 72.9812 14.2417 72.7038 14.545C72.4265 14.8483 71.9888 15 71.3908 15H70.9098V14.038H71.2868C71.5988 14.038 71.8242 13.9383 71.9628 13.739C72.1015 13.5397 72.1795 13.2147 72.1968 12.764ZM78.6088 15V8.812H79.6488V10.944H81.2608C81.9888 10.944 82.5391 11.1173 82.9118 11.464C83.2845 11.802 83.4708 12.283 83.4708 12.907C83.4708 13.557 83.2888 14.0683 82.9248 14.441C82.5695 14.8137 82.0061 15 81.2348 15H78.6088ZM81.2608 11.88H79.6488V14.064H81.2478C81.7158 14.064 82.0321 13.96 82.1968 13.752C82.3701 13.5353 82.4568 13.258 82.4568 12.92C82.4568 12.5733 82.3745 12.3133 82.2098 12.14C82.0451 11.9667 81.7288 11.88 81.2608 11.88ZM84.9945 15V8.812H86.0345V11.347H89.3365V8.812H90.3765V15H89.3365V12.309H86.0345V15H84.9945ZM98.0914 15V8.812H99.1314V15H98.0914ZM92.3324 15V8.812H93.3724V10.944H94.9844C95.7038 10.944 96.2454 11.1173 96.6094 11.464C96.9821 11.802 97.1684 12.283 97.1684 12.907C97.1684 13.557 96.9864 14.0683 96.6224 14.441C96.2671 14.8137 95.7124 15 94.9584 15H92.3324ZM94.9844 11.88H93.3724V14.064H94.9714C95.4394 14.064 95.7558 13.96 95.9204 13.752C96.0938 13.5353 96.1804 13.258 96.1804 12.92C96.1804 12.5733 96.0981 12.3133 95.9334 12.14C95.7688 11.9667 95.4524 11.88 94.9844 11.88ZM102.197 15H101.079V8.812H102.08V13.661L105.187 8.812H106.331V15H105.33V10.125L102.197 15ZM103.731 8.149C103.099 8.149 102.631 7.99733 102.327 7.694C102.024 7.382 101.868 6.979 101.859 6.485H102.717C102.752 6.771 102.847 6.99633 103.003 7.161C103.168 7.317 103.411 7.395 103.731 7.395C104.052 7.395 104.286 7.317 104.433 7.161C104.581 6.99633 104.672 6.771 104.706 6.485H105.577C105.56 6.979 105.404 7.382 105.109 7.694C104.815 7.99733 104.355 8.149 103.731 8.149ZM8.975 30.522V21.812H10.015V22.644C10.2403 22.3233 10.5437 22.085 10.925 21.929C11.3063 21.7643 11.7093 21.682 12.134 21.682C12.5153 21.682 12.8707 21.7513 13.2 21.89C13.538 22.02 13.8327 22.2193 14.084 22.488C14.3353 22.748 14.5303 23.0773 14.669 23.476C14.8163 23.8747 14.89 24.3297 14.89 24.841C14.89 25.8637 14.6213 26.6697 14.084 27.259C13.5467 27.8397 12.8403 28.13 11.965 28.13C11.5577 28.13 11.185 28.0607 10.847 27.922C10.5177 27.7833 10.2403 27.584 10.015 27.324V30.522H8.975ZM10.015 25.413C10.015 25.9763 10.21 26.4183 10.6 26.739C10.9987 27.051 11.458 27.207 11.978 27.207C12.55 27.207 13.005 26.9947 13.343 26.57C13.681 26.1453 13.85 25.582 13.85 24.88C13.85 24.204 13.681 23.658 13.343 23.242C13.005 22.8173 12.5413 22.605 11.952 22.605C11.7093 22.605 11.471 22.6527 11.237 22.748C11.0117 22.8347 10.808 22.9647 10.626 23.138C10.444 23.3027 10.2967 23.515 10.184 23.775C10.0713 24.035 10.015 24.334 10.015 24.672V25.413ZM20.3392 28V27.272C20.1486 27.5233 19.8842 27.7313 19.5462 27.896C19.2169 28.052 18.8312 28.13 18.3892 28.13C17.7132 28.13 17.1759 27.9653 16.7772 27.636C16.3872 27.3067 16.1922 26.856 16.1922 26.284C16.1922 25.6427 16.4046 25.179 16.8292 24.893C17.2626 24.607 17.8346 24.451 18.5452 24.425C18.8659 24.4163 19.1649 24.4163 19.4422 24.425C19.7196 24.425 19.9969 24.4293 20.2742 24.438V23.905C20.2742 23.4543 20.1442 23.125 19.8842 22.917C19.6242 22.709 19.2949 22.605 18.8962 22.605C18.4542 22.605 18.1162 22.7133 17.8822 22.93C17.6569 23.1467 17.4922 23.411 17.3882 23.723L16.4002 23.515C16.5302 22.969 16.8076 22.527 17.2322 22.189C17.6569 21.851 18.2116 21.682 18.8962 21.682C19.5982 21.682 20.1746 21.8597 20.6252 22.215C21.0846 22.5617 21.3142 23.112 21.3142 23.866V28H20.3392ZM20.2742 25.257C20.0142 25.2483 19.7369 25.244 19.4422 25.244C19.1562 25.244 18.8659 25.2483 18.5712 25.257C18.1292 25.2743 17.7956 25.3697 17.5702 25.543C17.3449 25.7163 17.2322 25.959 17.2322 26.271C17.2322 26.5657 17.3362 26.804 17.5442 26.986C17.7609 27.1593 18.0512 27.246 18.4152 27.246C18.9352 27.246 19.3729 27.1203 19.7282 26.869C20.0922 26.609 20.2742 26.271 20.2742 25.855V25.257ZM27.4058 25.985L28.3808 26.141C28.2594 26.6957 27.9778 27.168 27.5358 27.558C27.1024 27.9393 26.4958 28.13 25.7158 28.13C24.8578 28.13 24.1601 27.857 23.6228 27.311C23.0854 26.765 22.8168 25.9633 22.8168 24.906C22.8168 24.36 22.8904 23.8877 23.0378 23.489C23.1938 23.0817 23.4018 22.7437 23.6618 22.475C23.9218 22.2063 24.2294 22.007 24.5848 21.877C24.9401 21.747 25.3214 21.682 25.7288 21.682C26.5348 21.682 27.1458 21.877 27.5618 22.267C27.9864 22.657 28.2508 23.112 28.3548 23.632L27.4058 23.814C27.3278 23.5193 27.1631 23.2463 26.9118 22.995C26.6604 22.735 26.2661 22.605 25.7288 22.605C25.1308 22.605 24.6671 22.813 24.3378 23.229C24.0171 23.6363 23.8568 24.1953 23.8568 24.906C23.8568 25.5907 24.0171 26.1453 24.3378 26.57C24.6584 26.9947 25.1178 27.207 25.7158 27.207C26.2618 27.207 26.6561 27.0813 26.8988 26.83C27.1501 26.57 27.3191 26.2883 27.4058 25.985ZM33.3177 28V25.517C33.1617 25.5777 32.9537 25.634 32.6937 25.686C32.4424 25.7293 32.1737 25.751 31.8877 25.751C31.1164 25.751 30.5227 25.595 30.1067 25.283C29.6994 24.9623 29.4957 24.464 29.4957 23.788V21.812H30.5357V23.671C30.5357 24.0957 30.6657 24.399 30.9257 24.581C31.1944 24.763 31.554 24.854 32.0047 24.854C32.2734 24.854 32.5117 24.8367 32.7197 24.802C32.9364 24.7587 33.1357 24.7023 33.3177 24.633V21.812H34.3577V28H33.3177ZM41.521 25.088H36.945C36.9797 25.7813 37.1703 26.31 37.517 26.674C37.8637 27.038 38.3057 27.22 38.843 27.22C39.3283 27.22 39.7053 27.1073 39.974 26.882C40.2427 26.6567 40.4203 26.3967 40.507 26.102L41.482 26.271C41.3347 26.8517 41.0313 27.3067 40.572 27.636C40.1127 27.9653 39.5233 28.13 38.804 28.13C37.92 28.13 37.2137 27.844 36.685 27.272C36.165 26.6913 35.905 25.9027 35.905 24.906C35.905 24.3947 35.9787 23.9397 36.126 23.541C36.282 23.1337 36.49 22.7957 36.75 22.527C37.01 22.2497 37.3177 22.0417 37.673 21.903C38.037 21.7557 38.4227 21.682 38.83 21.682C39.6533 21.682 40.3077 21.942 40.793 22.462C41.2783 22.982 41.521 23.7143 41.521 24.659V25.088ZM38.817 22.579C38.3317 22.579 37.9243 22.7307 37.595 23.034C37.2743 23.3373 37.0707 23.736 36.984 24.23H40.481C40.455 23.7533 40.3077 23.359 40.039 23.047C39.7703 22.735 39.363 22.579 38.817 22.579ZM42.2596 22.774V21.812H47.8496V22.774H45.5746V28H44.5346V22.774H42.2596Z" fill="#1F6786"/>
</svg>
