<svg width="82" height="24" viewBox="0 0 82 24" fill="none" xmlns="http://www.w3.org/2000/svg">
<rect x="0.5" y="0.5" width="81" height="23" rx="7.5" stroke="#1F6786"/>
<path d="M7.975 16V9.812H9.015V12.347H12.317V9.812H13.357V16H12.317V13.309H9.015V16H7.975ZM20.5259 13.088H15.9499C15.9846 13.7813 16.1752 14.31 16.5219 14.674C16.8686 15.038 17.3106 15.22 17.8479 15.22C18.3332 15.22 18.7102 15.1073 18.9789 14.882C19.2476 14.6567 19.4252 14.3967 19.5119 14.102L20.4869 14.271C20.3396 14.8517 20.0362 15.3067 19.5769 15.636C19.1176 15.9653 18.5282 16.13 17.8089 16.13C16.9249 16.13 16.2186 15.844 15.6899 15.272C15.1699 14.6913 14.9099 13.9027 14.9099 12.906C14.9099 12.3947 14.9836 11.9397 15.1309 11.541C15.2869 11.1337 15.4949 10.7957 15.7549 10.527C16.0149 10.2497 16.3226 10.0417 16.6779 9.903C17.0419 9.75567 17.4276 9.682 17.8349 9.682C18.6582 9.682 19.3126 9.942 19.7979 10.462C20.2832 10.982 20.5259 11.7143 20.5259 12.659V13.088ZM17.8219 10.579C17.3366 10.579 16.9292 10.7307 16.5999 11.034C16.2792 11.3373 16.0756 11.736 15.9889 12.23H19.4859C19.4599 11.7533 19.3126 11.359 19.0439 11.047C18.7752 10.735 18.3679 10.579 17.8219 10.579ZM24.8344 16V9.812H27.5124C28.1884 9.812 28.7084 9.955 29.0724 10.241C29.445 10.527 29.6314 10.943 29.6314 11.489C29.6314 11.723 29.5707 11.9657 29.4494 12.217C29.3367 12.4683 29.107 12.6633 28.7604 12.802C29.133 12.9147 29.3974 13.0967 29.5534 13.348C29.718 13.5907 29.8004 13.894 29.8004 14.258C29.8004 14.7867 29.6314 15.2113 29.2934 15.532C28.964 15.844 28.431 16 27.6944 16H24.8344ZM27.5254 10.696H25.8484V12.438H27.6164C27.963 12.438 28.223 12.3687 28.3964 12.23C28.5697 12.0827 28.6564 11.8617 28.6564 11.567C28.6564 11.2723 28.574 11.0557 28.4094 10.917C28.2447 10.7697 27.95 10.696 27.5254 10.696ZM27.7074 13.283H25.8484V15.116H27.7074C28.106 15.116 28.3877 15.038 28.5524 14.882C28.7257 14.726 28.8124 14.505 28.8124 14.219C28.8124 13.8983 28.7214 13.6643 28.5394 13.517C28.366 13.361 28.0887 13.283 27.7074 13.283ZM37.1188 16V9.812H38.1588V16H37.1188ZM31.3598 16V9.812H32.3998V11.944H34.0118C34.7311 11.944 35.2728 12.1173 35.6368 12.464C36.0094 12.802 36.1958 13.283 36.1958 13.907C36.1958 14.557 36.0138 15.0683 35.6498 15.441C35.2944 15.8137 34.7398 16 33.9858 16H31.3598ZM34.0118 12.88H32.3998V15.064H33.9988C34.4668 15.064 34.7831 14.96 34.9478 14.752C35.1211 14.5353 35.2078 14.258 35.2078 13.92C35.2078 13.5733 35.1254 13.3133 34.9608 13.14C34.7961 12.9667 34.4798 12.88 34.0118 12.88ZM45.7618 12.984C45.7618 13.9373 45.4975 14.7 44.9688 15.272C44.4402 15.844 43.7425 16.13 42.8758 16.13C41.9745 16.13 41.2465 15.8483 40.6918 15.285C40.1372 14.7217 39.8598 13.8463 39.8598 12.659V11.359C39.8598 10.605 39.9422 9.981 40.1068 9.487C40.2802 8.98433 40.5185 8.58133 40.8218 8.278C41.1252 7.966 41.4892 7.73633 41.9138 7.589C42.3385 7.44167 42.7978 7.33767 43.2918 7.277C43.6905 7.23367 44.0588 7.19033 44.3968 7.147C44.7348 7.10367 45.0468 7.06467 45.3328 7.03L45.4628 8.031C45.1595 8.06567 44.8128 8.109 44.4228 8.161C44.0328 8.20433 43.6732 8.24333 43.3438 8.278C42.5725 8.36467 41.9572 8.616 41.4978 9.032C41.0472 9.43933 40.8218 10.137 40.8218 11.125V11.138C41.0558 10.7653 41.3765 10.4837 41.7838 10.293C42.1998 10.1023 42.6288 10.007 43.0708 10.007C43.9202 10.007 44.5788 10.2713 45.0468 10.8C45.5235 11.3287 45.7618 12.0567 45.7618 12.984ZM42.8758 15.246C43.5258 15.246 43.9982 15.0337 44.2928 14.609C44.5962 14.1757 44.7478 13.634 44.7478 12.984C44.7478 12.308 44.5875 11.7967 44.2668 11.45C43.9462 11.0947 43.4998 10.917 42.9278 10.917C42.3645 10.917 41.8792 11.0773 41.4718 11.398C41.0732 11.71 40.8738 12.1217 40.8738 12.633V12.828C40.8738 13.6253 41.0515 14.2277 41.4068 14.635C41.7622 15.0423 42.2518 15.246 42.8758 15.246ZM47.3305 18.522V9.812H48.3705V10.644C48.5958 10.3233 48.8991 10.085 49.2805 9.929C49.6618 9.76433 50.0648 9.682 50.4895 9.682C50.8708 9.682 51.2261 9.75133 51.5555 9.89C51.8935 10.02 52.1881 10.2193 52.4395 10.488C52.6908 10.748 52.8858 11.0773 53.0245 11.476C53.1718 11.8747 53.2455 12.3297 53.2455 12.841C53.2455 13.8637 52.9768 14.6697 52.4395 15.259C51.9021 15.8397 51.1958 16.13 50.3205 16.13C49.9131 16.13 49.5405 16.0607 49.2025 15.922C48.8731 15.7833 48.5958 15.584 48.3705 15.324V18.522H47.3305ZM48.3705 13.413C48.3705 13.9763 48.5655 14.4183 48.9555 14.739C49.3541 15.051 49.8135 15.207 50.3335 15.207C50.9055 15.207 51.3605 14.9947 51.6985 14.57C52.0365 14.1453 52.2055 13.582 52.2055 12.88C52.2055 12.204 52.0365 11.658 51.6985 11.242C51.3605 10.8173 50.8968 10.605 50.3075 10.605C50.0648 10.605 49.8265 10.6527 49.5925 10.748C49.3671 10.8347 49.1635 10.9647 48.9815 11.138C48.7995 11.3027 48.6521 11.515 48.5395 11.775C48.4268 12.035 48.3705 12.334 48.3705 12.672V13.413ZM58.6947 16V15.272C58.504 15.5233 58.2397 15.7313 57.9017 15.896C57.5724 16.052 57.1867 16.13 56.7447 16.13C56.0687 16.13 55.5314 15.9653 55.1327 15.636C54.7427 15.3067 54.5477 14.856 54.5477 14.284C54.5477 13.6427 54.76 13.179 55.1847 12.893C55.618 12.607 56.19 12.451 56.9007 12.425C57.2214 12.4163 57.5204 12.4163 57.7977 12.425C58.075 12.425 58.3524 12.4293 58.6297 12.438V11.905C58.6297 11.4543 58.4997 11.125 58.2397 10.917C57.9797 10.709 57.6504 10.605 57.2517 10.605C56.8097 10.605 56.4717 10.7133 56.2377 10.93C56.0124 11.1467 55.8477 11.411 55.7437 11.723L54.7557 11.515C54.8857 10.969 55.163 10.527 55.5877 10.189C56.0124 9.851 56.567 9.682 57.2517 9.682C57.9537 9.682 58.53 9.85967 58.9807 10.215C59.44 10.5617 59.6697 11.112 59.6697 11.866V16H58.6947ZM58.6297 13.257C58.3697 13.2483 58.0924 13.244 57.7977 13.244C57.5117 13.244 57.2214 13.2483 56.9267 13.257C56.4847 13.2743 56.151 13.3697 55.9257 13.543C55.7004 13.7163 55.5877 13.959 55.5877 14.271C55.5877 14.5657 55.6917 14.804 55.8997 14.986C56.1164 15.1593 56.4067 15.246 56.7707 15.246C57.2907 15.246 57.7284 15.1203 58.0837 14.869C58.4477 14.609 58.6297 14.271 58.6297 13.855V13.257ZM61.5492 16V9.812H62.5892V12.347H65.8912V9.812H66.9312V16H65.8912V13.309H62.5892V16H61.5492ZM71.4871 16.13C71.0624 16.13 70.6638 16.0607 70.2911 15.922C69.9271 15.7747 69.6151 15.5667 69.3551 15.298C69.0951 15.0207 68.8871 14.6783 68.7311 14.271C68.5838 13.8637 68.5101 13.4043 68.5101 12.893C68.5101 11.8703 68.7874 11.0817 69.3421 10.527C69.8968 9.96367 70.6118 9.682 71.4871 9.682C72.3538 9.682 73.0558 9.96367 73.5931 10.527C74.1304 11.0817 74.3991 11.8703 74.3991 12.893C74.3991 13.8983 74.1304 14.6913 73.5931 15.272C73.0558 15.844 72.3538 16.13 71.4871 16.13ZM71.4871 15.207C72.1111 15.207 72.5791 15.0033 72.8911 14.596C73.2031 14.18 73.3591 13.6123 73.3591 12.893C73.3591 12.165 73.2031 11.6017 72.8911 11.203C72.5791 10.8043 72.1111 10.605 71.4871 10.605C70.8718 10.605 70.3951 10.8043 70.0571 11.203C69.7191 11.6017 69.5501 12.165 69.5501 12.893C69.5501 13.6123 69.7234 14.18 70.0701 14.596C70.4168 15.0033 70.8891 15.207 71.4871 15.207Z" fill="#1F6786"/>
</svg>
