<svg width="13" height="13" viewBox="0 0 13 13" fill="none" xmlns="http://www.w3.org/2000/svg">
<path d="M4.12387 2.79163C4.12387 2.19181 4.36215 1.61657 4.78628 1.19244C5.21041 0.768304 5.78565 0.530029 6.38547 0.530029C6.98528 0.530029 7.56053 0.768304 7.98466 1.19244C8.40879 1.61657 8.64706 2.19181 8.64706 2.79163C8.64706 3.39144 8.40879 3.96668 7.98466 4.39082C7.56053 4.81495 6.98528 5.05322 6.38547 5.05322C5.78566 5.05322 5.21041 4.81495 4.78628 4.39082C4.36215 3.96668 4.12387 3.39144 4.12387 2.79163ZM1.53649 8.29864C2.0901 7.74503 2.84095 7.43402 3.62387 7.43402H9.14706C9.92998 7.43402 10.6808 7.74503 11.2344 8.29864C11.788 8.85225 12.0991 9.6031 12.0991 10.386C12.0991 10.8027 11.9335 11.2024 11.6389 11.497C11.3442 11.7917 10.9446 11.9572 10.5279 11.9572H2.24307C1.82637 11.9572 1.42672 11.7917 1.13207 11.497C0.837411 11.2024 0.671875 10.8027 0.671875 10.386C0.671875 9.6031 0.982888 8.85225 1.53649 8.29864Z" stroke="#1F6786"/>
</svg>
