<svg width="232" height="100" viewBox="0 0 232 100" fill="none" xmlns="http://www.w3.org/2000/svg">
<rect width="232" height="100" rx="13" fill="white"/>
<circle cx="53" cy="50" r="39" fill="#EFF8FC"/>
<path d="M39 35C39 32.2386 41.2386 30 44 30H53.5H63C65.7614 30 68 32.2386 68 35V63C68 65.7614 65.7614 68 63 68H44C41.2386 68 39 65.7614 39 63V35Z" stroke="black" stroke-width="2"/>
<line x1="49" y1="61" x2="59" y2="61" stroke="black" stroke-width="2"/>
<path d="M168.64 13H165.68V15.96H168.64V13Z" fill="black"/>
<path d="M171.6 13H168.64V15.96H171.6V13Z" fill="black"/>
<path d="M174.56 13H171.6V15.96H174.56V13Z" fill="black"/>
<path d="M186.4 13H183.44V15.96H186.4V13Z" fill="black"/>
<path d="M192.32 13H189.36V15.96H192.32V13Z" fill="black"/>
<path d="M168.64 15.9599H165.68V18.9199H168.64V15.9599Z" fill="black"/>
<path d="M174.56 15.9599H171.6V18.9199H174.56V15.9599Z" fill="black"/>
<path d="M177.52 15.9599H174.56V18.9199H177.52V15.9599Z" fill="black"/>
<path d="M180.48 15.9599H177.52V18.9199H180.48V15.9599Z" fill="black"/>
<path d="M192.32 15.9599H189.36V18.9199H192.32V15.9599Z" fill="black"/>
<path d="M168.64 18.92H165.68V21.88H168.64V18.92Z" fill="black"/>
<path d="M174.56 18.92H171.6V21.88H174.56V18.92Z" fill="black"/>
<path d="M177.52 18.92H174.56V21.88H177.52V18.92Z" fill="black"/>
<path d="M183.44 18.92H180.48V21.88H183.44V18.92Z" fill="black"/>
<path d="M186.4 18.92H183.44V21.88H186.4V18.92Z" fill="black"/>
<path d="M189.36 18.92H186.4V21.88H189.36V18.92Z" fill="black"/>
<path d="M177.52 21.8801H174.56V24.8401H177.52V21.8801Z" fill="black"/>
<path d="M183.44 21.8801H180.48V24.8401H183.44V21.8801Z" fill="black"/>
<path d="M168.64 24.84H165.68V27.8H168.64V24.84Z" fill="black"/>
<path d="M180.48 24.84H177.52V27.8H180.48V24.84Z" fill="black"/>
<path d="M186.4 24.84H183.44V27.8H186.4V24.84Z" fill="black"/>
<path d="M192.32 24.84H189.36V27.8H192.32V24.84Z" fill="black"/>
<path d="M171.6 27.8001H168.64V30.7601H171.6V27.8001Z" fill="black"/>
<path d="M174.56 27.8001H171.6V30.7601H174.56V27.8001Z" fill="black"/>
<path d="M180.48 27.8001H177.52V30.7601H180.48V27.8001Z" fill="black"/>
<path d="M186.4 27.8001H183.44V30.7601H186.4V27.8001Z" fill="black"/>
<path d="M192.32 27.8001H189.36V30.7601H192.32V27.8001Z" fill="black"/>
<path d="M168.64 30.76H165.68V33.72H168.64V30.76Z" fill="black"/>
<path d="M174.56 30.76H171.6V33.72H174.56V30.76Z" fill="black"/>
<path d="M180.48 30.76H177.52V33.72H180.48V30.76Z" fill="black"/>
<path d="M186.4 30.76H183.44V33.72H186.4V30.76Z" fill="black"/>
<path d="M192.32 30.76H189.36V33.72H192.32V30.76Z" fill="black"/>
<path d="M177.52 33.7201H174.56V36.6801H177.52V33.7201Z" fill="black"/>
<path d="M180.48 33.7201H177.52V36.6801H180.48V33.7201Z" fill="black"/>
<path d="M183.44 33.7201H180.48V36.6801H183.44V33.7201Z" fill="black"/>
<path d="M186.4 33.7201H183.44V36.6801H186.4V33.7201Z" fill="black"/>
<path d="M189.36 33.7201H186.4V36.6801H189.36V33.7201Z" fill="black"/>
<path d="M144.96 36.6802H142V39.6402H144.96V36.6802Z" fill="black"/>
<path d="M153.84 36.6802H150.88V39.6402H153.84V36.6802Z" fill="black"/>
<path d="M156.8 36.6802H153.84V39.6402H156.8V36.6802Z" fill="black"/>
<path d="M159.76 36.6802H156.8V39.6402H159.76V36.6802Z" fill="black"/>
<path d="M162.72 36.6802H159.76V39.6402H162.72V36.6802Z" fill="black"/>
<path d="M165.68 36.6802H162.72V39.6402H165.68V36.6802Z" fill="black"/>
<path d="M168.64 36.6802H165.68V39.6402H168.64V36.6802Z" fill="black"/>
<path d="M174.56 36.6802H171.6V39.6402H174.56V36.6802Z" fill="black"/>
<path d="M186.4 36.6802H183.44V39.6402H186.4V36.6802Z" fill="black"/>
<path d="M189.36 36.6802H186.4V39.6402H189.36V36.6802Z" fill="black"/>
<path d="M195.28 36.6802H192.32V39.6402H195.28V36.6802Z" fill="black"/>
<path d="M204.16 36.6802H201.2V39.6402H204.16V36.6802Z" fill="black"/>
<path d="M210.08 36.6802H207.12V39.6402H210.08V36.6802Z" fill="black"/>
<path d="M213.04 36.6802H210.08V39.6402H213.04V36.6802Z" fill="black"/>
<path d="M216 36.6802H213.04V39.6402H216V36.6802Z" fill="black"/>
<path d="M144.96 39.6401H142V42.6001H144.96V39.6401Z" fill="black"/>
<path d="M150.88 39.6401H147.92V42.6001H150.88V39.6401Z" fill="black"/>
<path d="M156.8 39.6401H153.84V42.6001H156.8V39.6401Z" fill="black"/>
<path d="M171.6 39.6401H168.64V42.6001H171.6V39.6401Z" fill="black"/>
<path d="M174.56 39.6401H171.6V42.6001H174.56V39.6401Z" fill="black"/>
<path d="M177.52 39.6401H174.56V42.6001H177.52V39.6401Z" fill="black"/>
<path d="M180.48 39.6401H177.52V42.6001H180.48V39.6401Z" fill="black"/>
<path d="M183.44 39.6401H180.48V42.6001H183.44V39.6401Z" fill="black"/>
<path d="M186.4 39.6401H183.44V42.6001H186.4V39.6401Z" fill="black"/>
<path d="M189.36 39.6401H186.4V42.6001H189.36V39.6401Z" fill="black"/>
<path d="M195.28 39.6401H192.32V42.6001H195.28V39.6401Z" fill="black"/>
<path d="M201.2 39.6401H198.24V42.6001H201.2V39.6401Z" fill="black"/>
<path d="M204.16 39.6401H201.2V42.6001H204.16V39.6401Z" fill="black"/>
<path d="M207.12 39.6401H204.16V42.6001H207.12V39.6401Z" fill="black"/>
<path d="M210.08 39.6401H207.12V42.6001H210.08V39.6401Z" fill="black"/>
<path d="M213.04 39.6401H210.08V42.6001H213.04V39.6401Z" fill="black"/>
<path d="M147.92 42.6H144.96V45.56H147.92V42.6Z" fill="black"/>
<path d="M150.88 42.6H147.92V45.56H150.88V42.6Z" fill="black"/>
<path d="M156.8 42.6H153.84V45.56H156.8V42.6Z" fill="black"/>
<path d="M162.72 42.6H159.76V45.56H162.72V42.6Z" fill="black"/>
<path d="M165.68 42.6H162.72V45.56H165.68V42.6Z" fill="black"/>
<path d="M177.52 42.6H174.56V45.56H177.52V42.6Z" fill="black"/>
<path d="M183.44 42.6H180.48V45.56H183.44V42.6Z" fill="black"/>
<path d="M189.36 42.6H186.4V45.56H189.36V42.6Z" fill="black"/>
<path d="M195.28 42.6H192.32V45.56H195.28V42.6Z" fill="black"/>
<path d="M198.24 42.6H195.28V45.56H198.24V42.6Z" fill="black"/>
<path d="M201.2 42.6H198.24V45.56H201.2V42.6Z" fill="black"/>
<path d="M204.16 42.6H201.2V45.56H204.16V42.6Z" fill="black"/>
<path d="M207.12 42.6H204.16V45.56H207.12V42.6Z" fill="black"/>
<path d="M216 42.6H213.04V45.56H216V42.6Z" fill="black"/>
<path d="M144.96 45.5601H142V48.5201H144.96V45.5601Z" fill="black"/>
<path d="M150.88 45.5601H147.92V48.5201H150.88V45.5601Z" fill="black"/>
<path d="M153.84 45.5601H150.88V48.5201H153.84V45.5601Z" fill="black"/>
<path d="M165.68 45.5601H162.72V48.5201H165.68V45.5601Z" fill="black"/>
<path d="M171.6 45.5601H168.64V48.5201H171.6V45.5601Z" fill="black"/>
<path d="M177.52 45.5601H174.56V48.5201H177.52V45.5601Z" fill="black"/>
<path d="M186.4 45.5601H183.44V48.5201H186.4V45.5601Z" fill="black"/>
<path d="M189.36 45.5601H186.4V48.5201H189.36V45.5601Z" fill="black"/>
<path d="M195.28 45.5601H192.32V48.5201H195.28V45.5601Z" fill="black"/>
<path d="M207.12 45.5601H204.16V48.5201H207.12V45.5601Z" fill="black"/>
<path d="M210.08 45.5601H207.12V48.5201H210.08V45.5601Z" fill="black"/>
<path d="M213.04 45.5601H210.08V48.5201H213.04V45.5601Z" fill="black"/>
<path d="M216 45.5601H213.04V48.5201H216V45.5601Z" fill="black"/>
<path d="M144.96 48.5202H142V51.4802H144.96V48.5202Z" fill="black"/>
<path d="M159.76 48.5202H156.8V51.4802H159.76V48.5202Z" fill="black"/>
<path d="M162.72 48.5202H159.76V51.4802H162.72V48.5202Z" fill="black"/>
<path d="M165.68 48.5202H162.72V51.4802H165.68V48.5202Z" fill="black"/>
<path d="M171.6 48.5202H168.64V51.4802H171.6V48.5202Z" fill="black"/>
<path d="M177.52 48.5202H174.56V51.4802H177.52V48.5202Z" fill="black"/>
<path d="M180.48 48.5202H177.52V51.4802H180.48V48.5202Z" fill="black"/>
<path d="M192.32 48.5202H189.36V51.4802H192.32V48.5202Z" fill="black"/>
<path d="M195.28 48.5202H192.32V51.4802H195.28V48.5202Z" fill="black"/>
<path d="M198.24 48.5202H195.28V51.4802H198.24V48.5202Z" fill="black"/>
<path d="M216 48.5202H213.04V51.4802H216V48.5202Z" fill="black"/>
<path d="M144.96 51.4798H142V54.4398H144.96V51.4798Z" fill="black"/>
<path d="M150.88 51.4798H147.92V54.4398H150.88V51.4798Z" fill="black"/>
<path d="M156.8 51.4798H153.84V54.4398H156.8V51.4798Z" fill="black"/>
<path d="M159.76 51.4798H156.8V54.4398H159.76V51.4798Z" fill="black"/>
<path d="M165.68 51.4798H162.72V54.4398H165.68V51.4798Z" fill="black"/>
<path d="M186.4 51.4798H183.44V54.4398H186.4V51.4798Z" fill="black"/>
<path d="M189.36 51.4798H186.4V54.4398H189.36V51.4798Z" fill="black"/>
<path d="M204.16 51.4798H201.2V54.4398H204.16V51.4798Z" fill="black"/>
<path d="M213.04 51.4798H210.08V54.4398H213.04V51.4798Z" fill="black"/>
<path d="M144.96 54.4399H142V57.3999H144.96V54.4399Z" fill="black"/>
<path d="M147.92 54.4399H144.96V57.3999H147.92V54.4399Z" fill="black"/>
<path d="M156.8 54.4399H153.84V57.3999H156.8V54.4399Z" fill="black"/>
<path d="M159.76 54.4399H156.8V57.3999H159.76V54.4399Z" fill="black"/>
<path d="M162.72 54.4399H159.76V57.3999H162.72V54.4399Z" fill="black"/>
<path d="M168.64 54.4399H165.68V57.3999H168.64V54.4399Z" fill="black"/>
<path d="M171.6 54.4399H168.64V57.3999H171.6V54.4399Z" fill="black"/>
<path d="M177.52 54.4399H174.56V57.3999H177.52V54.4399Z" fill="black"/>
<path d="M180.48 54.4399H177.52V57.3999H180.48V54.4399Z" fill="black"/>
<path d="M183.44 54.4399H180.48V57.3999H183.44V54.4399Z" fill="black"/>
<path d="M186.4 54.4399H183.44V57.3999H186.4V54.4399Z" fill="black"/>
<path d="M189.36 54.4399H186.4V57.3999H189.36V54.4399Z" fill="black"/>
<path d="M195.28 54.4399H192.32V57.3999H195.28V54.4399Z" fill="black"/>
<path d="M204.16 54.4399H201.2V57.3999H204.16V54.4399Z" fill="black"/>
<path d="M207.12 54.4399H204.16V57.3999H207.12V54.4399Z" fill="black"/>
<path d="M210.08 54.4399H207.12V57.3999H210.08V54.4399Z" fill="black"/>
<path d="M213.04 54.4399H210.08V57.3999H213.04V54.4399Z" fill="black"/>
<path d="M216 54.4399H213.04V57.3999H216V54.4399Z" fill="black"/>
<path d="M144.96 57.4001H142V60.3601H144.96V57.4001Z" fill="black"/>
<path d="M153.84 57.4001H150.88V60.3601H153.84V57.4001Z" fill="black"/>
<path d="M159.76 57.4001H156.8V60.3601H159.76V57.4001Z" fill="black"/>
<path d="M165.68 57.4001H162.72V60.3601H165.68V57.4001Z" fill="black"/>
<path d="M168.64 57.4001H165.68V60.3601H168.64V57.4001Z" fill="black"/>
<path d="M174.56 57.4001H171.6V60.3601H174.56V57.4001Z" fill="black"/>
<path d="M177.52 57.4001H174.56V60.3601H177.52V57.4001Z" fill="black"/>
<path d="M201.2 57.4001H198.24V60.3601H201.2V57.4001Z" fill="black"/>
<path d="M207.12 57.4001H204.16V60.3601H207.12V57.4001Z" fill="black"/>
<path d="M210.08 57.4001H207.12V60.3601H210.08V57.4001Z" fill="black"/>
<path d="M216 57.4001H213.04V60.3601H216V57.4001Z" fill="black"/>
<path d="M144.96 60.3599H142V63.3199H144.96V60.3599Z" fill="black"/>
<path d="M150.88 60.3599H147.92V63.3199H150.88V60.3599Z" fill="black"/>
<path d="M153.84 60.3599H150.88V63.3199H153.84V60.3599Z" fill="black"/>
<path d="M156.8 60.3599H153.84V63.3199H156.8V60.3599Z" fill="black"/>
<path d="M162.72 60.3599H159.76V63.3199H162.72V60.3599Z" fill="black"/>
<path d="M168.64 60.3599H165.68V63.3199H168.64V60.3599Z" fill="black"/>
<path d="M180.48 60.3599H177.52V63.3199H180.48V60.3599Z" fill="black"/>
<path d="M183.44 60.3599H180.48V63.3199H183.44V60.3599Z" fill="black"/>
<path d="M192.32 60.3599H189.36V63.3199H192.32V60.3599Z" fill="black"/>
<path d="M195.28 60.3599H192.32V63.3199H195.28V60.3599Z" fill="black"/>
<path d="M198.24 60.3599H195.28V63.3199H198.24V60.3599Z" fill="black"/>
<path d="M201.2 60.3599H198.24V63.3199H201.2V60.3599Z" fill="black"/>
<path d="M204.16 60.3599H201.2V63.3199H204.16V60.3599Z" fill="black"/>
<path d="M210.08 60.3599H207.12V63.3199H210.08V60.3599Z" fill="black"/>
<path d="M213.04 60.3599H210.08V63.3199H213.04V60.3599Z" fill="black"/>
<path d="M168.64 63.3198H165.68V66.2798H168.64V63.3198Z" fill="black"/>
<path d="M171.6 63.3198H168.64V66.2798H171.6V63.3198Z" fill="black"/>
<path d="M177.52 63.3198H174.56V66.2798H177.52V63.3198Z" fill="black"/>
<path d="M180.48 63.3198H177.52V66.2798H180.48V63.3198Z" fill="black"/>
<path d="M183.44 63.3198H180.48V66.2798H183.44V63.3198Z" fill="black"/>
<path d="M192.32 63.3198H189.36V66.2798H192.32V63.3198Z" fill="black"/>
<path d="M204.16 63.3198H201.2V66.2798H204.16V63.3198Z" fill="black"/>
<path d="M210.08 63.3198H207.12V66.2798H210.08V63.3198Z" fill="black"/>
<path d="M213.04 63.3198H210.08V66.2798H213.04V63.3198Z" fill="black"/>
<path d="M168.64 66.2799H165.68V69.2399H168.64V66.2799Z" fill="black"/>
<path d="M177.52 66.2799H174.56V69.2399H177.52V66.2799Z" fill="black"/>
<path d="M180.48 66.2799H177.52V69.2399H180.48V66.2799Z" fill="black"/>
<path d="M192.32 66.2799H189.36V69.2399H192.32V66.2799Z" fill="black"/>
<path d="M198.24 66.2799H195.28V69.2399H198.24V66.2799Z" fill="black"/>
<path d="M204.16 66.2799H201.2V69.2399H204.16V66.2799Z" fill="black"/>
<path d="M216 66.2799H213.04V69.2399H216V66.2799Z" fill="black"/>
<path d="M168.64 69.24H165.68V72.2H168.64V69.24Z" fill="black"/>
<path d="M171.6 69.24H168.64V72.2H171.6V69.24Z" fill="black"/>
<path d="M177.52 69.24H174.56V72.2H177.52V69.24Z" fill="black"/>
<path d="M183.44 69.24H180.48V72.2H183.44V69.24Z" fill="black"/>
<path d="M189.36 69.24H186.4V72.2H189.36V69.24Z" fill="black"/>
<path d="M192.32 69.24H189.36V72.2H192.32V69.24Z" fill="black"/>
<path d="M204.16 69.24H201.2V72.2H204.16V69.24Z" fill="black"/>
<path d="M213.04 69.24H210.08V72.2H213.04V69.24Z" fill="black"/>
<path d="M216 69.24H213.04V72.2H216V69.24Z" fill="black"/>
<path d="M168.64 72.1999H165.68V75.1599H168.64V72.1999Z" fill="black"/>
<path d="M174.56 72.1999H171.6V75.1599H174.56V72.1999Z" fill="black"/>
<path d="M177.52 72.1999H174.56V75.1599H177.52V72.1999Z" fill="black"/>
<path d="M180.48 72.1999H177.52V75.1599H180.48V72.1999Z" fill="black"/>
<path d="M186.4 72.1999H183.44V75.1599H186.4V72.1999Z" fill="black"/>
<path d="M189.36 72.1999H186.4V75.1599H189.36V72.1999Z" fill="black"/>
<path d="M192.32 72.1999H189.36V75.1599H192.32V72.1999Z" fill="black"/>
<path d="M195.28 72.1999H192.32V75.1599H195.28V72.1999Z" fill="black"/>
<path d="M198.24 72.1999H195.28V75.1599H198.24V72.1999Z" fill="black"/>
<path d="M201.2 72.1999H198.24V75.1599H201.2V72.1999Z" fill="black"/>
<path d="M204.16 72.1999H201.2V75.1599H204.16V72.1999Z" fill="black"/>
<path d="M168.64 75.16H165.68V78.12H168.64V75.16Z" fill="black"/>
<path d="M177.52 75.16H174.56V78.12H177.52V75.16Z" fill="black"/>
<path d="M186.4 75.16H183.44V78.12H186.4V75.16Z" fill="black"/>
<path d="M189.36 75.16H186.4V78.12H189.36V75.16Z" fill="black"/>
<path d="M195.28 75.16H192.32V78.12H195.28V75.16Z" fill="black"/>
<path d="M198.24 75.16H195.28V78.12H198.24V75.16Z" fill="black"/>
<path d="M213.04 75.16H210.08V78.12H213.04V75.16Z" fill="black"/>
<path d="M216 75.16H213.04V78.12H216V75.16Z" fill="black"/>
<path d="M177.52 78.1199H174.56V81.0799H177.52V78.1199Z" fill="black"/>
<path d="M183.44 78.1199H180.48V81.0799H183.44V78.1199Z" fill="black"/>
<path d="M192.32 78.1199H189.36V81.0799H192.32V78.1199Z" fill="black"/>
<path d="M195.28 78.1199H192.32V81.0799H195.28V78.1199Z" fill="black"/>
<path d="M204.16 78.1199H201.2V81.0799H204.16V78.1199Z" fill="black"/>
<path d="M207.12 78.1199H204.16V81.0799H207.12V78.1199Z" fill="black"/>
<path d="M210.08 78.1199H207.12V81.0799H210.08V78.1199Z" fill="black"/>
<path d="M213.04 78.1199H210.08V81.0799H213.04V78.1199Z" fill="black"/>
<path d="M216 78.1199H213.04V81.0799H216V78.1199Z" fill="black"/>
<path d="M198.24 81.08H195.28V84.04H198.24V81.08Z" fill="black"/>
<path d="M201.2 81.08H198.24V84.04H201.2V81.08Z" fill="black"/>
<path d="M204.16 81.08H201.2V84.04H204.16V81.08Z" fill="black"/>
<path d="M210.08 81.08H207.12V84.04H210.08V81.08Z" fill="black"/>
<path d="M213.04 81.08H210.08V84.04H213.04V81.08Z" fill="black"/>
<path d="M216 81.08H213.04V84.04H216V81.08Z" fill="black"/>
<path d="M168.64 84.0401H165.68V87.0001H168.64V84.0401Z" fill="black"/>
<path d="M180.48 84.0401H177.52V87.0001H180.48V84.0401Z" fill="black"/>
<path d="M192.32 84.0401H189.36V87.0001H192.32V84.0401Z" fill="black"/>
<path d="M195.28 84.0401H192.32V87.0001H195.28V84.0401Z" fill="black"/>
<path d="M198.24 84.0401H195.28V87.0001H198.24V84.0401Z" fill="black"/>
<path d="M207.12 84.0401H204.16V87.0001H207.12V84.0401Z" fill="black"/>
<path d="M216 84.0401H213.04V87.0001H216V84.0401Z" fill="black"/>
<path d="M159.612 13H145.108H142V16.108V30.612V33.72H145.108H159.612H162.72V30.612V16.108V13H159.612ZM159.612 30.612H145.108V16.108H159.612V30.612Z" fill="black"/>
<path d="M212.892 13H198.388H195.28V16.108V30.612V33.72H198.388H212.892H216V30.612V16.108V13H212.892ZM212.892 30.612H198.388V16.108H212.892V30.612Z" fill="black"/>
<path d="M159.612 66.2799H145.108H142V69.3879V83.8919V86.9999H145.108H159.612H162.72V83.8919V69.3879V66.2799H159.612ZM159.612 83.8919H145.108V69.3879H159.612V83.8919Z" fill="black"/>
<path d="M156.8 18.92H147.92V27.8H156.8V18.92Z" fill="black"/>
<path d="M210.08 18.92H201.2V27.8H210.08V18.92Z" fill="black"/>
<path d="M156.8 72.1999H147.92V81.0799H156.8V72.1999Z" fill="black"/>
</svg>
