<svg width="316" height="44" viewBox="0 0 316 44" fill="none" xmlns="http://www.w3.org/2000/svg">
<rect width="316" height="44" rx="13" fill="#C51F1E"/>
<path d="M87.16 28.16C86.3707 28.16 85.6453 28.0427 84.984 27.808C84.3333 27.5627 83.7733 27.2053 83.304 26.736C82.8347 26.2667 82.4667 25.6853 82.2 24.992C81.944 24.288 81.816 23.4773 81.816 22.56C81.816 21.664 81.944 20.864 82.2 20.16C82.4667 19.456 82.8347 18.8693 83.304 18.4C83.7733 17.9307 84.3333 17.5733 84.984 17.328C85.6453 17.0827 86.3707 16.96 87.16 16.96C87.96 16.96 88.6907 17.0827 89.352 17.328C90.0133 17.5733 90.5733 17.9307 91.032 18.4C91.5013 18.8693 91.864 19.456 92.12 20.16C92.3867 20.864 92.52 21.664 92.52 22.56C92.52 23.4773 92.3867 24.288 92.12 24.992C91.864 25.6853 91.5013 26.2667 91.032 26.736C90.5733 27.2053 90.0133 27.5627 89.352 27.808C88.6907 28.0427 87.96 28.16 87.16 28.16ZM87.16 26.416C88.2373 26.416 89.0693 26.0693 89.656 25.376C90.2427 24.672 90.536 23.7333 90.536 22.56C90.536 21.376 90.2427 20.4373 89.656 19.744C89.0693 19.0507 88.2373 18.704 87.16 18.704C86.0933 18.704 85.2613 19.0507 84.664 19.744C84.0773 20.4373 83.784 21.376 83.784 22.56C83.784 23.7333 84.0773 24.672 84.664 25.376C85.2613 26.0693 86.0933 26.416 87.16 26.416ZM99.3285 26.416C100.193 26.416 100.854 26.2187 101.312 25.824C101.782 25.4187 102.086 24.8853 102.225 24.224L104.145 24.544C103.921 25.7173 103.409 26.6133 102.609 27.232C101.809 27.8507 100.715 28.16 99.3285 28.16C98.5392 28.16 97.8245 28.0373 97.1845 27.792C96.5445 27.5467 95.9952 27.1893 95.5365 26.72C95.0885 26.24 94.7418 25.6533 94.4965 24.96C94.2512 24.2667 94.1285 23.472 94.1285 22.576C94.1285 21.6587 94.2565 20.848 94.5125 20.144C94.7685 19.44 95.1258 18.8533 95.5845 18.384C96.0432 17.9147 96.5925 17.5627 97.2325 17.328C97.8725 17.0827 98.5765 16.96 99.3445 16.96C100.721 16.96 101.809 17.2747 102.609 17.904C103.419 18.5333 103.926 19.4187 104.129 20.56L102.209 20.88C102.049 20.2507 101.745 19.7333 101.297 19.328C100.849 18.912 100.198 18.704 99.3445 18.704C98.3205 18.704 97.5205 19.0507 96.9445 19.744C96.3792 20.4267 96.0965 21.3707 96.0965 22.576C96.0965 23.76 96.3845 24.6987 96.9605 25.392C97.5365 26.0747 98.3258 26.416 99.3285 26.416ZM105.086 18.944V17.12H114.734V18.944H110.894V28H108.942V18.944H105.086ZM120.756 17.12L124.868 28H122.788L121.78 25.248H117.172L116.196 28H114.148L118.228 17.12H120.756ZM117.812 23.488H121.14L119.46 18.864L117.812 23.488ZM126.468 28V17.12H131.124C132.233 17.12 133.113 17.36 133.764 17.84C134.414 18.3093 134.74 19.0613 134.74 20.096C134.74 20.5867 134.622 21.0507 134.388 21.488C134.153 21.9253 133.732 22.2507 133.124 22.464C133.817 22.6347 134.308 22.9387 134.595 23.376C134.884 23.8133 135.028 24.352 135.028 24.992C135.028 26.016 134.681 26.7733 133.988 27.264C133.305 27.7547 132.361 28 131.156 28H126.468ZM130.948 18.784H128.404V21.696H130.852C131.556 21.696 132.052 21.5733 132.34 21.328C132.638 21.0827 132.788 20.7093 132.788 20.208C132.788 19.696 132.649 19.3333 132.372 19.12C132.094 18.896 131.62 18.784 130.948 18.784ZM130.996 23.312H128.404V26.336H131.06C131.764 26.336 132.27 26.2187 132.58 25.984C132.9 25.7387 133.06 25.3547 133.06 24.832C133.06 24.3093 132.9 23.9253 132.58 23.68C132.26 23.4347 131.732 23.312 130.996 23.312ZM144.597 28V19.744L139.125 28H137.061V17.12H138.997V25.312L144.389 17.12H146.533V28H144.597ZM148.133 18.944V17.12H157.781V18.944H153.941V28H151.989V18.944H148.133ZM159.374 17.12H161.326V21.024H163.886C165.155 21.024 166.131 21.3067 166.814 21.872C167.496 22.4373 167.838 23.3333 167.838 24.56C167.838 25.7013 167.496 26.56 166.814 27.136C166.131 27.712 165.198 28 164.014 28H159.374V17.12ZM163.854 26.272C164.579 26.272 165.096 26.1387 165.406 25.872C165.715 25.5947 165.87 25.1413 165.87 24.512C165.87 23.9253 165.71 23.488 165.39 23.2C165.08 22.9013 164.568 22.752 163.854 22.752H161.326V26.272H163.854ZM177.394 18.704C176.626 18.704 176.024 18.8853 175.586 19.248C175.16 19.6 174.872 20.08 174.722 20.688L172.786 20.352C173 19.296 173.496 18.4693 174.274 17.872C175.064 17.264 176.109 16.96 177.41 16.96C178.68 16.96 179.682 17.2213 180.418 17.744C181.154 18.2667 181.522 19.0453 181.522 20.08C181.522 20.6667 181.373 21.1627 181.074 21.568C180.776 21.9733 180.328 22.2667 179.73 22.448C180.36 22.5867 180.85 22.8533 181.202 23.248C181.565 23.632 181.746 24.1813 181.746 24.896C181.746 25.9093 181.362 26.7093 180.594 27.296C179.826 27.872 178.733 28.16 177.314 28.16C175.97 28.16 174.898 27.8667 174.098 27.28C173.298 26.6933 172.829 25.84 172.69 24.72L174.61 24.416C174.717 25.0453 175 25.536 175.458 25.888C175.917 26.24 176.546 26.416 177.346 26.416C178.136 26.416 178.738 26.2773 179.154 26C179.57 25.712 179.778 25.296 179.778 24.752C179.778 24.272 179.608 23.9147 179.266 23.68C178.936 23.4347 178.413 23.312 177.698 23.312H176.066V21.664H177.714C178.376 21.664 178.85 21.5413 179.138 21.296C179.426 21.04 179.57 20.6827 179.57 20.224C179.57 19.744 179.384 19.3707 179.01 19.104C178.648 18.8373 178.109 18.704 177.394 18.704ZM189.334 17.12L193.446 28H191.366L190.358 25.248H185.75L184.774 28H182.726L186.806 17.12H189.334ZM186.39 23.488H189.718L188.038 18.864L186.39 23.488ZM203.195 28H201.243V24.096H198.843L196.395 28H194.171L196.827 23.872C196.102 23.648 195.547 23.264 195.163 22.72C194.779 22.1653 194.587 21.4453 194.587 20.56C194.587 19.4187 194.929 18.56 195.611 17.984C196.294 17.408 197.233 17.12 198.427 17.12H203.195V28ZM198.571 18.848C197.867 18.848 197.355 18.992 197.035 19.28C196.726 19.5573 196.571 20 196.571 20.608C196.571 21.1947 196.726 21.6373 197.035 21.936C197.345 22.224 197.857 22.368 198.571 22.368H201.243V18.848H198.571ZM205.749 28V17.12H210.405C211.514 17.12 212.394 17.36 213.045 17.84C213.695 18.3093 214.021 19.0613 214.021 20.096C214.021 20.5867 213.903 21.0507 213.669 21.488C213.434 21.9253 213.013 22.2507 212.405 22.464C213.098 22.6347 213.589 22.9387 213.877 23.376C214.165 23.8133 214.309 24.352 214.309 24.992C214.309 26.016 213.962 26.7733 213.269 27.264C212.586 27.7547 211.642 28 210.437 28H205.749ZM210.229 18.784H207.685V21.696H210.133C210.837 21.696 211.333 21.5733 211.621 21.328C211.919 21.0827 212.069 20.7093 212.069 20.208C212.069 19.696 211.93 19.3333 211.653 19.12C211.375 18.896 210.901 18.784 210.229 18.784ZM210.277 23.312H207.685V26.336H210.341C211.045 26.336 211.551 26.2187 211.861 25.984C212.181 25.7387 212.341 25.3547 212.341 24.832C212.341 24.3093 212.181 23.9253 211.861 23.68C211.541 23.4347 211.013 23.312 210.277 23.312ZM216.343 28V17.12H218.295V21.6H219.927L222.999 17.12H225.319L221.511 22.448L225.463 28H223.062L219.911 23.424H218.295V28H216.343ZM232.024 25.536C231.63 26.4 231.192 27.0293 230.712 27.424C230.232 27.808 229.518 28 228.568 28H227.384V26.208H228.344C228.771 26.208 229.112 26.1493 229.368 26.032C229.635 25.9147 229.859 25.7227 230.04 25.456L225.832 17.12H228.024L231.048 23.424L233.816 17.12H235.832L232.024 25.536Z" fill="white"/>
</svg>
