<svg width="38" height="38" viewBox="0 0 38 38" fill="none" xmlns="http://www.w3.org/2000/svg">
<circle cx="19" cy="19" r="19" fill="#FDD7D1"/>
<path d="M13.5527 13.9473H23.0264" stroke="#C51F1E" stroke-width="1.26316"/>
<path d="M13.5527 18.3684H18.6054" stroke="#C51F1E" stroke-width="1.26316"/>
<path d="M24.2892 15.8422L17.3418 22.7896V27.8422L22.3944 26.5791L28.8786 19.6317M24.2892 15.8422L25.9884 14.143C26.4551 13.6763 27.2025 13.6476 27.7036 14.0772L30.236 16.2478C30.7816 16.7155 30.8277 17.5434 30.3374 18.0687L28.8786 19.6317M24.2892 15.8422L28.8786 19.6317" stroke="#C51F1E" stroke-width="1.26316"/>
<path d="M27.4474 10.7895V9.52632C27.4474 8.13107 26.3163 7 24.9211 7H12.2895C10.8943 7 9.76318 8.13107 9.76318 9.52632V23.4211V28.4737C9.76318 29.8689 10.8943 31 12.2895 31H24.9211C26.3163 31 27.4474 29.8689 27.4474 28.4737V24.6842" stroke="#C51F1E" stroke-width="1.26316"/>
</svg>
