<svg width="38" height="38" viewBox="0 0 38 38" fill="none" xmlns="http://www.w3.org/2000/svg">
<circle cx="19" cy="19" r="19" fill="#FDD7D1"/>
<path d="M12.5263 28H25.7895C27.0103 28 28 27.0103 28 25.7895V9.21053C28 7.98969 27.0103 7 25.7895 7H14.7368C13.516 7 12.5263 7.98969 12.5263 9.21053V21.3684M12.5263 28H9.21053C7.98969 28 7 27.0103 7 25.7895V23.5789C7 22.3581 7.98969 21.3684 9.21053 21.3684H12.5263M12.5263 28V21.3684" stroke="#C51F1E" stroke-width="1.3"/>
<path d="M18.25 25V12H22.8C24.2359 12 25.4 13.1641 25.4 14.6V15.9C25.4 17.3359 24.2359 18.5 22.8 18.5H15M15 21.75H21.5" stroke="#C51F1E" stroke-width="1.3"/>
</svg>
