<svg width="38" height="38" viewBox="0 0 38 38" fill="none" xmlns="http://www.w3.org/2000/svg">
<circle cx="19" cy="19" r="19" fill="#FDD7D1"/>
<path d="M31.5 21.7V13.65C31.5 11.5237 29.7763 9.8 27.65 9.8V9.8C25.5237 9.8 23.8 11.5237 23.8 13.65V27.3C23.8 29.6196 21.9196 31.5 19.6 31.5H16.1C13.7804 31.5 11.9 29.6196 11.9 27.3V21.7M11.9 21.7H11.2C8.8804 21.7 7 19.8196 7 17.5V12.6H9.1M11.9 21.7H13.3C15.6196 21.7 17.5 19.8196 17.5 17.5V12.6H15.4M9.1 12.6V7M9.1 12.6H15.4M15.4 12.6V7" stroke="#C51F1E" stroke-width="1.4"/>
</svg>
