<svg width="53" height="53" viewBox="0 0 53 53" fill="none" xmlns="http://www.w3.org/2000/svg">
<circle cx="26.5" cy="26.5" r="26.5" fill="#FDD7D1"/>
<path d="M7.85 38.7682L7.85 38.768L7.85 19.232C7.85 18.272 8.18232 17.4639 8.84724 16.8184C9.51167 16.1733 10.3393 15.8514 11.3195 15.85L11.3197 15.85H20.1833V13.23C20.1833 12.2713 20.5157 11.4633 21.1805 10.8165C21.845 10.1699 22.6735 9.84864 23.6552 9.85M7.85 38.7682L32.6667 13.23L32.8167 13.2302C32.8181 12.2702 32.4865 11.462 31.8215 10.8164C31.1569 10.1712 30.3285 9.85 29.3469 9.85H23.6552M7.85 38.7682C7.85143 39.7293 8.18363 40.5379 8.84712 41.1835C9.51038 41.8288 10.3389 42.15 11.3218 42.15H41.6801L7.85 38.7682ZM23.6552 9.85C23.6553 9.85 23.6553 9.85 23.6553 9.85L23.6551 10V9.85H23.6552ZM32.6667 15.85V16H32.8167V15.85H32.6667ZM20.1833 16H20.3333V15.85L20.1833 16ZM30.4611 13.23V15.85H22.5389L22.5389 13.23L22.5389 13.2293C22.5377 12.9701 22.6466 12.7253 22.8879 12.4918C23.1294 12.258 23.3833 12.15 23.6531 12.15L29.3469 12.15L29.3476 12.15C29.6183 12.1489 29.8717 12.2566 30.1116 12.4912C30.352 12.7264 30.4611 12.9716 30.4611 13.23ZM10.0556 31.15H10.2056V31H10.0556V31.15ZM22.2389 31V31.15H22.3889V31H22.2389ZM30.7611 31.15H42.7944H30.7611ZM22.3889 25.85H22.2389V26V28.85H10.2056L10.2056 19.232L10.2056 19.2313C10.2044 18.9706 10.3134 18.7252 10.5545 18.4918C10.7961 18.258 11.05 18.15 11.3197 18.15L41.6803 18.15L41.6809 18.15C41.9516 18.1489 42.205 18.2566 42.4449 18.4912C42.6852 18.7263 42.7944 18.9721 42.7944 19.232V28.85H30.7611V26V25.85H30.6111H22.3889ZM28.4056 28.15V31.85H24.5944V28.15H28.4056Z" fill="#C51F1E" stroke="#C51F1E" stroke-width="0.3"/>
</svg>
