<svg width="245" height="44" viewBox="0 0 245 44" fill="none" xmlns="http://www.w3.org/2000/svg">
<rect width="245" height="44" rx="13" fill="#C51F1E"/>
<path d="M86.28 28V17.12H90.936C92.0453 17.12 92.9253 17.36 93.576 17.84C94.2267 18.3093 94.552 19.0613 94.552 20.096C94.552 20.5867 94.4347 21.0507 94.2 21.488C93.9653 21.9253 93.544 22.2507 92.936 22.464C93.6293 22.6347 94.12 22.9387 94.408 23.376C94.696 23.8133 94.84 24.352 94.84 24.992C94.84 26.016 94.4933 26.7733 93.8 27.264C93.1173 27.7547 92.1733 28 90.968 28H86.28ZM90.76 18.784H88.216V21.696H90.664C91.368 21.696 91.864 21.5733 92.152 21.328C92.4507 21.0827 92.6 20.7093 92.6 20.208C92.6 19.696 92.4613 19.3333 92.184 19.12C91.9067 18.896 91.432 18.784 90.76 18.784ZM90.808 23.312H88.216V26.336H90.872C91.576 26.336 92.0827 26.2187 92.392 25.984C92.712 25.7387 92.872 25.3547 92.872 24.832C92.872 24.3093 92.712 23.9253 92.392 23.68C92.072 23.4347 91.544 23.312 90.808 23.312ZM96.8738 17.12H98.8258V21.024H101.274C102.543 21.024 103.519 21.3067 104.202 21.872C104.895 22.4373 105.242 23.3333 105.242 24.56C105.242 25.7013 104.895 26.56 104.202 27.136C103.519 27.712 102.586 28 101.402 28H96.8738V17.12ZM106.698 28V17.12H108.65V28H106.698ZM101.242 26.272C101.967 26.272 102.484 26.1387 102.794 25.872C103.103 25.5947 103.258 25.1413 103.258 24.512C103.258 23.9253 103.098 23.488 102.778 23.2C102.468 22.9013 101.956 22.752 101.242 22.752H98.8258V26.272H101.242ZM111.218 28V17.12H118.994V18.88H113.17V21.456H115.906C117.154 21.456 118.092 21.712 118.722 22.224C119.362 22.7253 119.682 23.5467 119.682 24.688C119.682 25.8293 119.351 26.6667 118.69 27.2C118.039 27.7333 117.116 28 115.922 28H111.218ZM115.794 23.152H113.17V26.288H115.794C116.487 26.288 116.988 26.1653 117.298 25.92C117.607 25.664 117.762 25.264 117.762 24.72C117.762 24.1653 117.602 23.7653 117.282 23.52C116.972 23.2747 116.476 23.152 115.794 23.152ZM121.718 28V17.12H126.358C127.552 17.12 128.486 17.4133 129.158 18C129.84 18.576 130.182 19.4453 130.182 20.608C130.182 21.76 129.84 22.6347 129.158 23.232C128.475 23.8293 127.499 24.128 126.23 24.128H123.67V28H121.718ZM123.67 22.416H126.182C126.886 22.416 127.398 22.2613 127.718 21.952C128.038 21.6427 128.198 21.2 128.198 20.624C128.198 19.9947 128.038 19.5413 127.718 19.264C127.408 18.976 126.896 18.832 126.182 18.832H123.67V22.416ZM136.725 17.12L140.837 28H138.757L137.749 25.248H133.141L132.165 28H130.117L134.197 17.12H136.725ZM133.781 23.488H137.109L135.429 18.864L133.781 23.488ZM140.258 18.944V17.12H149.906V18.944H146.066V28H144.114V18.944H140.258ZM151.499 17.12H153.451V21.024H156.011C157.28 21.024 158.256 21.3067 158.939 21.872C159.621 22.4373 159.963 23.3333 159.963 24.56C159.963 25.7013 159.621 26.56 158.939 27.136C158.256 27.712 157.323 28 156.139 28H151.499V17.12ZM155.979 26.272C156.704 26.272 157.221 26.1387 157.531 25.872C157.84 25.5947 157.995 25.1413 157.995 24.512C157.995 23.9253 157.835 23.488 157.515 23.2C157.205 22.9013 156.693 22.752 155.979 22.752H153.451V26.272H155.979Z" fill="white"/>
</svg>
