<svg width="53" height="53" viewBox="0 0 53 53" fill="none" xmlns="http://www.w3.org/2000/svg">
<circle cx="26.5" cy="26.5" r="26.5" fill="#FDD7D1"/>
<path d="M35.1603 41.1635L31.2391 30.7749C31.1443 30.5236 30.9734 30.3061 30.7493 30.1504C30.5253 29.9948 30.2583 29.9078 29.9829 29.9004L29.9826 29.9004C29.4349 29.8872 28.9034 30.2024 28.6777 30.7052L28.6775 30.7056L25.2028 38.5156H21H20.9V38.6156V41.077V41.177H21H26.1111C26.3799 41.177 26.6431 41.101 26.868 40.9582C27.093 40.8153 27.2701 40.6116 27.3767 40.3719L29.8397 34.838L33.7609 45.2255C33.7609 45.2255 33.7609 45.2255 33.7609 45.2255C33.8557 45.4768 34.0266 45.6942 34.2507 45.8499C34.4747 46.0056 34.7417 46.0926 35.0171 46.1L35.0171 46.1H35.0198H35.0555H35.0556V46L35.1603 41.1635Z" fill="#C51F1E" stroke="#C51F1E" stroke-width="0.2"/>
<path d="M17.85 38.52V38.42H17.75H11.6V20.02H41.4V31.08V31.18H41.5H44H44.1V31.08V19.92C44.1 18.4963 42.9332 17.34 41.5 17.34H34.1V12.48C34.1 11.0563 32.9332 9.9 31.5 9.9H21.5C20.0668 9.9 18.9 11.0563 18.9 12.48V17.34H11.5C10.0668 17.34 8.9 18.4963 8.9 19.92V38.52C8.9 39.9437 10.0668 41.1 11.5 41.1H17.75H17.85V41V38.52ZM21.6 12.58H31.4V17.34H21.6V12.58Z" fill="#C51F1E" stroke="#C51F1E" stroke-width="0.2"/>
</svg>
