<svg width="99" height="28" viewBox="0 0 99 28" fill="none" xmlns="http://www.w3.org/2000/svg">
<rect width="99" height="28" rx="8" fill="#99D098"/>
<path d="M11.121 18L13.75 14.15L11.198 10.52H13.222L14.85 12.896L16.379 10.52H18.392L15.884 14.194L18.579 18H16.544L14.784 15.393L13.112 18H11.121ZM24.6751 18V12.918L21.2211 18H19.5271V10.52H21.1771V15.602L24.6091 10.52H26.3251V18H24.6751ZM27.3655 12.071V10.52H34.0975V12.071H31.5675V18H29.9065V12.071H27.3655ZM37.2732 18V10.52H43.8402V18H42.1902V12.071H38.9342V18H37.2732ZM45.491 18V10.52H48.857C49.6857 10.52 50.3457 10.718 50.837 11.114C51.3357 11.51 51.585 12.1407 51.585 13.006C51.585 13.8493 51.332 14.4727 50.826 14.876C50.3273 15.2793 49.6453 15.481 48.78 15.481H47.152V18H45.491ZM47.152 14.051H48.659C49.099 14.051 49.4143 13.9667 49.605 13.798C49.7957 13.622 49.891 13.358 49.891 13.006C49.891 12.632 49.7957 12.3643 49.605 12.203C49.4143 12.0343 49.099 11.95 48.659 11.95H47.152V14.051ZM56.2282 18.11C55.6782 18.11 55.1722 18.033 54.7102 17.879C54.2482 17.7177 53.8522 17.4793 53.5222 17.164C53.1922 16.8413 52.9319 16.438 52.7412 15.954C52.5579 15.47 52.4662 14.9017 52.4662 14.249C52.4662 13.611 52.5579 13.0537 52.7412 12.577C52.9319 12.093 53.1922 11.6933 53.5222 11.378C53.8522 11.0553 54.2482 10.8133 54.7102 10.652C55.1722 10.4907 55.6782 10.41 56.2282 10.41C56.7782 10.41 57.2842 10.4907 57.7462 10.652C58.2082 10.8133 58.6042 11.0553 58.9342 11.378C59.2642 11.6933 59.5209 12.093 59.7042 12.577C59.8949 13.0537 59.9902 13.611 59.9902 14.249C59.9902 14.9017 59.8949 15.47 59.7042 15.954C59.5209 16.438 59.2642 16.8413 58.9342 17.164C58.6042 17.4793 58.2082 17.7177 57.7462 17.879C57.2842 18.033 56.7782 18.11 56.2282 18.11ZM56.2282 16.636C56.8882 16.636 57.3979 16.4233 57.7572 15.998C58.1166 15.5727 58.2962 14.9897 58.2962 14.249C58.2962 13.5083 58.1166 12.929 57.7572 12.511C57.3979 12.093 56.8882 11.884 56.2282 11.884C55.5682 11.884 55.0586 12.093 54.6992 12.511C54.3399 12.929 54.1602 13.5083 54.1602 14.249C54.1602 14.9897 54.3399 15.5727 54.6992 15.998C55.0586 16.4233 55.5682 16.636 56.2282 16.636ZM60.4379 19.562V16.449H61.1969C61.4315 16.2437 61.6222 15.9357 61.7689 15.525C61.9229 15.107 62.0035 14.656 62.0109 14.172C62.0109 14.0913 62.0109 13.8787 62.0109 13.534C62.0182 13.1893 62.0219 12.8153 62.0219 12.412C62.0219 12.0013 62.0219 11.6127 62.0219 11.246C62.0219 10.8793 62.0219 10.6373 62.0219 10.52H67.6319V16.449H68.7099V19.562H67.1149V18H62.0219V19.562H60.4379ZM63.5949 14.348C63.5802 14.766 63.5252 15.151 63.4299 15.503C63.3345 15.8477 63.1879 16.163 62.9899 16.449H65.9709V12.071H63.6389C63.6389 12.137 63.6352 12.28 63.6279 12.5C63.6279 12.72 63.6242 12.9547 63.6169 13.204C63.6169 13.4533 63.6132 13.688 63.6059 13.908C63.5985 14.128 63.5949 14.2747 63.5949 14.348ZM73.9282 10.52L76.6782 18H74.9182L74.3132 16.273H71.3102L70.7162 18H69.0002L71.7392 10.52H73.9282ZM71.8272 14.799H73.7962L72.8062 11.972L71.8272 14.799ZM81.4512 18V14.964H80.7692L78.8222 18H76.7872L79.3612 14.172L76.8202 10.52H78.7672L80.7142 13.468H81.4512V10.52H83.1122V13.468H83.8602L85.7962 10.52H87.7542L85.2022 14.172L87.7872 18H85.7412L83.8052 14.964H83.1122V18H81.4512Z" fill="#1A7E18"/>
</svg>
