<svg width="53" height="53" viewBox="0 0 53 53" fill="none" xmlns="http://www.w3.org/2000/svg">
<circle cx="26.5" cy="26.5" r="26.5" fill="#FDD7D1"/>
<path d="M20.1958 18.5115C20.1958 19.2388 20.4847 19.9363 20.999 20.4506C21.5133 20.9649 22.2108 21.2538 22.9381 21.2538C23.6654 21.2538 24.3629 20.9649 24.8772 20.4506C25.3915 19.9363 25.6804 19.2388 25.6804 18.5115C25.6804 17.7842 25.3915 17.0867 24.8772 16.5724C24.3629 16.0581 23.6654 15.7692 22.9381 15.7692C22.2108 15.7692 21.5133 16.0581 20.999 16.5724C20.4847 17.0867 20.1958 17.7842 20.1958 18.5115Z" stroke="#C51F1E" stroke-width="2.77273" stroke-linecap="round" stroke-linejoin="round"/>
<path d="M18.769 23.9722C19.1825 23.1683 19.7949 22.4836 20.548 21.9835C21.2777 21.5065 22.1027 21.2585 22.9397 21.2585C23.7767 21.2585 24.6018 21.5065 25.3315 21.9835C26.0636 22.458 26.674 23.1424 27.1104 23.9722" stroke="#C51F1E" stroke-width="2.77273" stroke-linecap="round" stroke-linejoin="round"/>
<path d="M40.2308 39.6154C40.2308 40.2478 39.9795 40.8544 39.5323 41.3016C39.0851 41.7488 38.4786 42 37.8462 42H16.3846C15.7522 42 15.1456 41.7488 14.6984 41.3016C14.2512 40.8544 14 40.2478 14 39.6154V13.3846C14 12.7522 14.2512 12.1456 14.6984 11.6984C15.1456 11.2512 15.7522 11 16.3846 11H31.8846L40.2308 19.3462V39.6154Z" stroke="#C51F1E" stroke-width="2.77273" stroke-linecap="round" stroke-linejoin="round"/>
<path d="M18.769 30.0769H35.4613M18.769 36.0384H28.3075" stroke="#C51F1E" stroke-width="2.77273" stroke-linecap="round"/>
</svg>
