<svg width="21" height="21" viewBox="0 0 21 21" fill="none" xmlns="http://www.w3.org/2000/svg">
<path d="M10.5 0C9.21472 0 7.98208 0.510575 7.07325 1.41941C6.16442 2.32824 5.65385 3.56087 5.65385 4.84615C5.65385 7.52285 9.86919 14.1693 9.86919 17.7692H11.1308C11.1308 14.1815 15.3462 7.30477 15.3462 4.84615C15.3462 3.56087 14.8356 2.32824 13.9267 1.41941C13.0179 0.510575 11.7853 0 10.5 0ZM10.5 2.42308C11.1426 2.42308 11.759 2.67836 12.2134 3.13278C12.6678 3.58719 12.9231 4.20351 12.9231 4.84615C12.9231 5.48879 12.6678 6.10511 12.2134 6.55953C11.759 7.01394 11.1426 7.26923 10.5 7.26923C9.85736 7.26923 9.24104 7.01394 8.78662 6.55953C8.33221 6.10511 8.07692 5.48879 8.07692 4.84615C8.07692 4.20351 8.33221 3.58719 8.78662 3.13278C9.24104 2.67836 9.85736 2.42308 10.5 2.42308ZM5.52785 13.9577C5.51059 13.9657 5.49361 13.9744 5.47696 13.9836C3.98677 14.2453 2.72354 14.6039 1.76723 15.0942C1.28827 15.3389 0.875538 15.6288 0.555692 15.977C0.235038 16.3259 0 16.779 0 17.2895C0 18.0552 0.507231 18.6537 1.11058 19.0817C1.71392 19.5098 2.47558 19.8369 3.40765 20.1164C5.26938 20.6753 7.75788 21 10.5 21C13.2421 21 15.7306 20.6753 17.5923 20.1164C18.5236 19.8369 19.2861 19.5106 19.8894 19.0817C20.4928 18.6537 21 18.0552 21 17.2895C21 16.7774 20.7658 16.3008 20.4443 15.9519C20.1228 15.603 19.7142 15.3389 19.2328 15.0933C18.2716 14.6031 16.9963 14.2445 15.4972 13.9828C15.3918 13.9623 15.2834 13.9631 15.1783 13.9851C15.0732 14.0071 14.9735 14.0498 14.8851 14.1107C14.7967 14.1716 14.7214 14.2496 14.6635 14.34C14.6055 14.4304 14.5662 14.5314 14.5478 14.6372C14.5294 14.7429 14.5322 14.8513 14.5562 14.956C14.5802 15.0606 14.6247 15.1595 14.6873 15.2467C14.75 15.3339 14.8293 15.4078 14.9208 15.4639C15.0123 15.5201 15.1141 15.5575 15.2202 15.5739C16.6118 15.8162 17.7684 16.1595 18.501 16.5327C18.8677 16.7184 19.1253 16.9179 19.2586 17.0625C19.3919 17.2071 19.3846 17.2644 19.3846 17.2895C19.3846 17.3274 19.3329 17.5019 18.9557 17.7692C18.5785 18.0366 17.9356 18.3298 17.1126 18.5769C15.4673 19.0704 13.1105 19.3846 10.5 19.3846C7.88954 19.3846 5.53269 19.0704 3.88662 18.5769C3.06438 18.3298 2.42146 18.0366 2.04508 17.7692C1.66708 17.5019 1.61538 17.3274 1.61538 17.2895C1.61538 17.2652 1.60973 17.2063 1.74138 17.0625C1.87385 16.9187 2.13473 16.7184 2.499 16.5327C3.22592 16.1603 4.37123 15.817 5.75481 15.5731C5.86243 15.56 5.96638 15.5257 6.06056 15.472C6.15475 15.4183 6.23728 15.3463 6.30334 15.2604C6.3694 15.1744 6.41766 15.0761 6.44531 14.9713C6.47295 14.8664 6.47942 14.7572 6.46433 14.6498C6.44925 14.5424 6.41291 14.4391 6.35745 14.346C6.30199 14.2528 6.22852 14.1717 6.14133 14.1072C6.05413 14.0428 5.95497 13.9964 5.84964 13.9707C5.7443 13.945 5.63491 13.9406 5.52785 13.9577Z" fill="#1F6786"/>
</svg>
