<svg width="349" height="49" viewBox="0 0 349 49" fill="none" xmlns="http://www.w3.org/2000/svg">
<rect width="349" height="49" rx="13" fill="#C51F1E"/>
<path d="M103.16 31.16C102.371 31.16 101.645 31.0427 100.984 30.808C100.333 30.5627 99.7733 30.2053 99.304 29.736C98.8347 29.2667 98.4667 28.6853 98.2 27.992C97.944 27.288 97.816 26.4773 97.816 25.56C97.816 24.664 97.944 23.864 98.2 23.16C98.4667 22.456 98.8347 21.8693 99.304 21.4C99.7733 20.9307 100.333 20.5733 100.984 20.328C101.645 20.0827 102.371 19.96 103.16 19.96C103.96 19.96 104.691 20.0827 105.352 20.328C106.013 20.5733 106.573 20.9307 107.032 21.4C107.501 21.8693 107.864 22.456 108.12 23.16C108.387 23.864 108.52 24.664 108.52 25.56C108.52 26.4773 108.387 27.288 108.12 27.992C107.864 28.6853 107.501 29.2667 107.032 29.736C106.573 30.2053 106.013 30.5627 105.352 30.808C104.691 31.0427 103.96 31.16 103.16 31.16ZM103.16 29.416C104.237 29.416 105.069 29.0693 105.656 28.376C106.243 27.672 106.536 26.7333 106.536 25.56C106.536 24.376 106.243 23.4373 105.656 22.744C105.069 22.0507 104.237 21.704 103.16 21.704C102.093 21.704 101.261 22.0507 100.664 22.744C100.077 23.4373 99.784 24.376 99.784 25.56C99.784 26.7333 100.077 27.672 100.664 28.376C101.261 29.0693 102.093 29.416 103.16 29.416ZM115.329 29.416C116.193 29.416 116.854 29.2187 117.312 28.824C117.782 28.4187 118.086 27.8853 118.225 27.224L120.145 27.544C119.921 28.7173 119.409 29.6133 118.609 30.232C117.809 30.8507 116.715 31.16 115.329 31.16C114.539 31.16 113.825 31.0373 113.185 30.792C112.545 30.5467 111.995 30.1893 111.537 29.72C111.089 29.24 110.742 28.6533 110.497 27.96C110.251 27.2667 110.129 26.472 110.129 25.576C110.129 24.6587 110.257 23.848 110.513 23.144C110.769 22.44 111.126 21.8533 111.585 21.384C112.043 20.9147 112.593 20.5627 113.233 20.328C113.873 20.0827 114.577 19.96 115.345 19.96C116.721 19.96 117.809 20.2747 118.609 20.904C119.419 21.5333 119.926 22.4187 120.129 23.56L118.209 23.88C118.049 23.2507 117.745 22.7333 117.297 22.328C116.849 21.912 116.198 21.704 115.345 21.704C114.321 21.704 113.521 22.0507 112.945 22.744C112.379 23.4267 112.097 24.3707 112.097 25.576C112.097 26.76 112.385 27.6987 112.961 28.392C113.537 29.0747 114.326 29.416 115.329 29.416ZM121.086 21.944V20.12H130.734V21.944H126.894V31H124.942V21.944H121.086ZM136.756 20.12L140.868 31H138.788L137.78 28.248H133.172L132.196 31H130.148L134.228 20.12H136.756ZM133.812 26.488H137.14L135.46 21.864L133.812 26.488ZM142.468 31V20.12H147.124C148.233 20.12 149.113 20.36 149.764 20.84C150.414 21.3093 150.74 22.0613 150.74 23.096C150.74 23.5867 150.622 24.0507 150.388 24.488C150.153 24.9253 149.732 25.2507 149.124 25.464C149.817 25.6347 150.308 25.9387 150.595 26.376C150.884 26.8133 151.028 27.352 151.028 27.992C151.028 29.016 150.681 29.7733 149.988 30.264C149.305 30.7547 148.361 31 147.156 31H142.468ZM146.948 21.784H144.404V24.696H146.852C147.556 24.696 148.052 24.5733 148.34 24.328C148.638 24.0827 148.788 23.7093 148.788 23.208C148.788 22.696 148.649 22.3333 148.372 22.12C148.094 21.896 147.62 21.784 146.948 21.784ZM146.996 26.312H144.404V29.336H147.06C147.764 29.336 148.27 29.2187 148.58 28.984C148.9 28.7387 149.06 28.3547 149.06 27.832C149.06 27.3093 148.9 26.9253 148.58 26.68C148.26 26.4347 147.732 26.312 146.996 26.312ZM160.597 31V22.744L155.125 31H153.061V20.12H154.997V28.312L160.389 20.12H162.533V31H160.597ZM164.133 21.944V20.12H173.781V21.944H169.941V31H167.989V21.944H164.133ZM175.374 20.12H177.326V24.024H179.886C181.155 24.024 182.131 24.3067 182.814 24.872C183.496 25.4373 183.838 26.3333 183.838 27.56C183.838 28.7013 183.496 29.56 182.814 30.136C182.131 30.712 181.198 31 180.014 31H175.374V20.12ZM179.854 29.272C180.579 29.272 181.096 29.1387 181.406 28.872C181.715 28.5947 181.87 28.1413 181.87 27.512C181.87 26.9253 181.71 26.488 181.39 26.2C181.08 25.9013 180.568 25.752 179.854 25.752H177.326V29.272H179.854ZM193.394 21.704C192.626 21.704 192.024 21.8853 191.586 22.248C191.16 22.6 190.872 23.08 190.722 23.688L188.786 23.352C189 22.296 189.496 21.4693 190.274 20.872C191.064 20.264 192.109 19.96 193.41 19.96C194.68 19.96 195.682 20.2213 196.418 20.744C197.154 21.2667 197.522 22.0453 197.522 23.08C197.522 23.6667 197.373 24.1627 197.074 24.568C196.776 24.9733 196.328 25.2667 195.73 25.448C196.36 25.5867 196.85 25.8533 197.202 26.248C197.565 26.632 197.746 27.1813 197.746 27.896C197.746 28.9093 197.362 29.7093 196.594 30.296C195.826 30.872 194.733 31.16 193.314 31.16C191.97 31.16 190.898 30.8667 190.098 30.28C189.298 29.6933 188.829 28.84 188.69 27.72L190.61 27.416C190.717 28.0453 191 28.536 191.458 28.888C191.917 29.24 192.546 29.416 193.346 29.416C194.136 29.416 194.738 29.2773 195.154 29C195.57 28.712 195.778 28.296 195.778 27.752C195.778 27.272 195.608 26.9147 195.266 26.68C194.936 26.4347 194.413 26.312 193.698 26.312H192.066V24.664H193.714C194.376 24.664 194.85 24.5413 195.138 24.296C195.426 24.04 195.57 23.6827 195.57 23.224C195.57 22.744 195.384 22.3707 195.01 22.104C194.648 21.8373 194.109 21.704 193.394 21.704ZM205.334 20.12L209.446 31H207.366L206.358 28.248H201.75L200.774 31H198.726L202.806 20.12H205.334ZM202.39 26.488H205.718L204.038 21.864L202.39 26.488ZM219.195 31H217.243V27.096H214.843L212.395 31H210.171L212.827 26.872C212.102 26.648 211.547 26.264 211.163 25.72C210.779 25.1653 210.587 24.4453 210.587 23.56C210.587 22.4187 210.929 21.56 211.611 20.984C212.294 20.408 213.233 20.12 214.427 20.12H219.195V31ZM214.571 21.848C213.867 21.848 213.355 21.992 213.035 22.28C212.726 22.5573 212.571 23 212.571 23.608C212.571 24.1947 212.726 24.6373 213.035 24.936C213.345 25.224 213.857 25.368 214.571 25.368H217.243V21.848H214.571ZM221.749 31V20.12H226.405C227.514 20.12 228.394 20.36 229.045 20.84C229.695 21.3093 230.021 22.0613 230.021 23.096C230.021 23.5867 229.903 24.0507 229.669 24.488C229.434 24.9253 229.013 25.2507 228.405 25.464C229.098 25.6347 229.589 25.9387 229.877 26.376C230.165 26.8133 230.309 27.352 230.309 27.992C230.309 29.016 229.962 29.7733 229.269 30.264C228.586 30.7547 227.642 31 226.437 31H221.749ZM226.229 21.784H223.685V24.696H226.133C226.837 24.696 227.333 24.5733 227.621 24.328C227.919 24.0827 228.069 23.7093 228.069 23.208C228.069 22.696 227.93 22.3333 227.653 22.12C227.375 21.896 226.901 21.784 226.229 21.784ZM226.277 26.312H223.685V29.336H226.341C227.045 29.336 227.551 29.2187 227.861 28.984C228.181 28.7387 228.341 28.3547 228.341 27.832C228.341 27.3093 228.181 26.9253 227.861 26.68C227.541 26.4347 227.013 26.312 226.277 26.312ZM232.343 31V20.12H234.295V24.6H235.927L238.999 20.12H241.319L237.511 25.448L241.463 31H239.062L235.911 26.424H234.295V31H232.343ZM248.024 28.536C247.63 29.4 247.192 30.0293 246.712 30.424C246.232 30.808 245.518 31 244.568 31H243.384V29.208H244.344C244.771 29.208 245.112 29.1493 245.368 29.032C245.635 28.9147 245.859 28.7227 246.04 28.456L241.832 20.12H244.024L247.048 26.424L249.816 20.12H251.832L248.024 28.536Z" fill="white"/>
</svg>
